<!--
123.svg
copyright: (C) 2014 Grupo Utilizadores QGIS Portugal
email: qgis.portugal@gmail.com
Este ficheiro é software livre; você pode redistribuí-lo
e/ou modificá-lo nos termos da Licença Pública Geral GNU
versão 2 (GPL2) como publicada pela Fundação do
Software Livre (FSF).
-->
<?xml version="1.0" encoding="UTF-8" standalone="no"?>
<!-- Created with Inkscape (http://www.inkscape.org/) -->

<svg
   xmlns:dc="http://purl.org/dc/elements/1.1/"
   xmlns:cc="http://creativecommons.org/ns#"
   xmlns:rdf="http://www.w3.org/1999/02/22-rdf-syntax-ns#"
   xmlns:svg="http://www.w3.org/2000/svg"
   xmlns="http://www.w3.org/2000/svg"
   xmlns:sodipodi="http://sodipodi.sourceforge.net/DTD/sodipodi-0.dtd"
   xmlns:inkscape="http://www.inkscape.org/namespaces/inkscape"
   version="1.2"
   width="7.5000005"
   height="7.5"
   id="svg2"
   inkscape:version="0.48.4 r9939"
   sodipodi:docname="123.svg">
  <sodipodi:namedview
     pagecolor="#ffffff"
     bordercolor="#666666"
     borderopacity="1"
     objecttolerance="10"
     gridtolerance="10"
     guidetolerance="10"
     inkscape:pageopacity="0"
     inkscape:pageshadow="2"
     inkscape:window-width="1366"
     inkscape:window-height="716"
     id="namedview3274"
     showgrid="false"
     inkscape:zoom="31.466667"
     inkscape:cx="-1.2076269"
     inkscape:cy="3.75"
     inkscape:window-x="-8"
     inkscape:window-y="-8"
     inkscape:window-maximized="1"
     inkscape:current-layer="svg2" />
  <defs
     id="defs4" />
  <metadata
     id="metadata7">
    <rdf:RDF>
      <cc:Work
         rdf:about="">
        <dc:format>image/svg+xml</dc:format>
        <dc:type
           rdf:resource="http://purl.org/dc/dcmitype/StillImage" />
        <dc:title />
      </cc:Work>
    </rdf:RDF>
  </metadata>
  <g
     transform="translate(-122.59397,-191.37873)"
     id="layer1">
    <path
       d="m 126.13697,196.26188 c 0,-0.0112 -0.0211,-0.0379 -0.0635,-0.0802 -0.0422,-0.0422 -0.0775,-0.0719 -0.10571,-0.0887 -0.006,0 -0.0252,-0.0113 -0.059,-0.0337 -0.0338,-0.0225 -0.0733,-0.0464 -0.11835,-0.0718 -0.045,-0.0253 -0.0901,-0.0521 -0.13511,-0.0803 -0.045,-0.0282 -0.0816,-0.0508 -0.10981,-0.0676 -0.0394,-0.0225 -0.09,-0.0521 -0.152,-0.0887 -0.0619,-0.0366 -0.12535,-0.0718 -0.19015,-0.1056 -0.0648,-0.0338 -0.12115,-0.0648 -0.16902,-0.093 -0.0479,-0.0282 -0.0732,-0.0437 -0.0761,-0.0465 -0.003,-0.003 -0.01,-0.006 -0.0211,-0.009 -0.0113,-0.003 -0.0197,-0.004 -0.0254,-0.004 -0.006,0 -0.0196,0.003 -0.0422,0.009 -0.0226,0.0168 -0.0521,0.0422 -0.0887,0.0761 -0.0366,0.0338 -0.0718,0.0691 -0.1056,0.10572 -0.0337,0.0366 -0.0647,0.0704 -0.0928,0.10129 -0.0281,0.031 -0.045,0.0492 -0.0506,0.0549 -0.0114,0.0112 -0.017,0.0337 -0.017,0.0676 0,0.0338 0,0.0677 0,0.10129 0,0.0396 0,0.0762 0,0.1098 0,0.0282 0.006,0.048 0.017,0.0593 -0.017,10e-6 -0.041,-0.007 -0.072,-0.0211 -0.031,-0.014 -0.0647,-0.0311 -0.10129,-0.0507 -0.0366,-0.0198 -0.0704,-0.038 -0.10129,-0.055 -0.031,-0.0168 -0.0521,-0.031 -0.0635,-0.0422 l 0,-0.16889 c -0.006,-0.0114 -0.0212,-0.0396 -0.0466,-0.0846 -0.0253,-0.045 -0.038,-0.0731 -0.038,-0.0844 0,-0.0113 0.0113,-0.0269 0.0339,-0.0466 0.0226,-0.0197 0.0395,-0.0324 0.0507,-0.038 l 0.33803,-0.0846 c 0.0112,-0.006 0.0266,-0.0184 0.0464,-0.038 0.0198,-0.0197 0.0311,-0.0324 0.0337,-0.038 0.002,-0.006 0.006,-0.0142 0.009,-0.0254 0.003,-0.0113 0.004,-0.0197 0.004,-0.0251 0,-0.006 -0.003,-0.0198 -0.009,-0.0422 -0.006,-0.0114 -0.0181,-0.0254 -0.0379,-0.0422 -0.0198,-0.0168 -0.0353,-0.031 -0.0464,-0.0422 -0.017,-0.0112 -0.0467,-0.0281 -0.0888,-0.0506 -0.0422,-0.0226 -0.069,-0.034 -0.0803,-0.034 -0.0168,0 -0.0408,-0.003 -0.0716,-0.009 -0.031,-0.006 -0.0661,-0.01 -0.10561,-0.0126 -0.0395,-0.003 -0.0761,-0.006 -0.1098,-0.009 -0.0338,-0.003 -0.0592,-0.004 -0.0762,-0.004 0,-0.0168 -0.007,-0.0521 -0.021,-0.10561 -0.014,-0.0535 -0.0267,-0.0916 -0.038,-0.11409 -0.006,-0.0112 -0.0198,-0.0294 -0.0422,-0.0547 -0.0226,-0.0253 -0.0479,-0.0521 -0.0761,-0.0803 -0.0282,-0.0282 -0.055,-0.0535 -0.0802,-0.0761 -0.0253,-0.0226 -0.0436,-0.0366 -0.055,-0.0422 l 0.0846,0 0.6758,0.33803 0.0846,0 c 0.006,1e-5 0.0211,-0.006 0.0465,-0.0169 0.0253,-0.0113 0.052,-0.0211 0.0802,-0.0295 0.0282,-0.009 0.055,-0.0169 0.0803,-0.0254 0.0253,-0.009 0.0409,-0.0127 0.0465,-0.0127 0.0112,0 0.0267,0.0113 0.0464,0.034 0.0198,0.0225 0.0324,0.0395 0.0379,0.0506 l -0.008,0.20267 c 0,0.0282 0.002,0.0451 0.008,0.0508 -1e-5,0.006 0.0324,0.0296 0.0972,0.0718 0.0648,0.0422 0.11697,0.0745 0.15652,0.0971 0.0619,0.0396 0.14069,0.0875 0.23644,0.14375 0.0958,0.0563 0.18727,0.11122 0.2746,0.16477 0.0874,0.0535 0.19853,0.11977 0.33365,0.19866 l 0.16914,0 c 0.006,-0.0338 0.0125,-0.0902 0.021,-0.16915 0.009,-0.0788 0.0169,-0.16338 0.0254,-0.25346 0.009,-0.0901 0.0168,-0.17455 0.0253,-0.25346 0.009,-0.0788 0.0126,-0.13519 0.0126,-0.16888 0,-0.006 0,-0.0226 0,-0.0508 0,-0.0337 10e-4,-0.0702 0.004,-0.10969 0.003,-0.0395 0.004,-0.0761 0.004,-0.10992 0,-0.0394 0,-0.0676 0,-0.0846 0,-0.0337 -0.003,-0.11251 -0.009,-0.23644 l -0.84469,-0.42235 c -0.006,10e-6 -0.0226,-0.001 -0.0508,-0.004 -0.0282,-0.003 -0.0479,-0.004 -0.059,-0.004 -0.017,0 -0.0438,0.001 -0.0804,0.004 -0.0366,0.003 -0.0577,0.004 -0.0631,0.004 -0.0114,10e-6 -0.0465,0.007 -0.10571,0.021 -0.0592,0.014 -0.12389,0.0309 -0.19429,0.0507 -0.0703,0.0198 -0.14082,0.038 -0.21129,0.0549 -0.0704,0.0168 -0.1254,0.031 -0.16477,0.0422 -0.0338,0.0112 -0.0831,0.0266 -0.14787,0.0464 -0.0647,0.0198 -0.1,0.0325 -0.10561,0.0381 -0.0564,0.1126 -0.0944,0.17031 -0.11409,0.17314 -0.0197,0.003 -0.0352,0.004 -0.0466,0.004 l -0.0928,-0.009 -0.25346,-0.0846 c -0.0226,-0.0112 -0.055,-0.0266 -0.0972,-0.0464 -0.0422,-0.0198 -0.0661,-0.0324 -0.0717,-0.0379 -0.0114,-0.0114 -0.0227,-0.0423 -0.034,-0.0931 -0.0113,-0.0508 -0.0169,-0.0816 -0.0169,-0.0928 0.0114,1e-5 0.048,0.001 0.1098,0.004 0.0619,0.002 0.0985,0.007 0.10981,0.0126 l 0.16888,0.0846 0.0846,0 c 0.0226,-0.006 0.0648,-0.0156 0.12672,-0.0296 0.0619,-0.014 0.12957,-0.0295 0.20279,-0.0464 0.0732,-0.0168 0.14225,-0.0337 0.20705,-0.0507 0.0648,-0.0169 0.11122,-0.031 0.13924,-0.0421 0.0732,-0.0226 0.14645,-0.0464 0.21968,-0.0718 0.0732,-0.0253 0.14087,-0.0578 0.20292,-0.0973 -0.0114,-0.0112 -0.0396,-0.0266 -0.0846,-0.0464 -0.045,-0.0198 -0.0732,-0.0324 -0.0846,-0.0379 l -0.33778,0 c -0.0114,-0.006 -0.0269,-0.0324 -0.0465,-0.0803 -0.0197,-0.0479 -0.0324,-0.0775 -0.038,-0.0888 -0.0508,-0.0789 -0.11972,-0.13524 -0.20705,-0.16902 -0.0874,-0.0337 -0.15909,-0.0901 -0.2153,-0.16901 l 0.0843,-0.008 c 0.0114,1e-5 0.0396,0.002 0.0846,0.008 l 0.16889,0.0846 c 0.006,0 0.0156,-0.003 0.0296,-0.009 0.0142,-0.006 0.0269,-0.009 0.0382,-0.009 0,-0.006 0.003,-0.0142 0.009,-0.0254 0.006,-0.0113 0.009,-0.0225 0.009,-0.0339 l 0,-0.009 c -0.006,-0.0112 -0.0183,-0.0252 -0.038,-0.0421 -0.0197,-0.0169 -0.0352,-0.031 -0.0465,-0.0421 -0.0112,-0.006 -0.0393,-0.0184 -0.0844,-0.038 -0.045,-0.0197 -0.0704,-0.0324 -0.0761,-0.038 -0.006,-0.006 -0.01,-0.0142 -0.0127,-0.0254 -0.003,-0.0113 -0.004,-0.0197 -0.004,-0.0254 0,-0.006 0.003,-0.0198 0.009,-0.0422 0.0114,-0.0112 0.0409,-0.0392 0.0888,-0.0843 0.0479,-0.045 0.0745,-0.0732 0.0801,-0.0846 0.0113,-0.0168 0.0269,-0.0577 0.0465,-0.12248 0.0197,-0.0648 0.0324,-0.10848 0.038,-0.13098 0.22535,0.0564 0.33945,0.0888 0.34229,0.0972 0.003,0.009 0.004,0.0155 0.004,0.0211 0,0.006 -0.003,0.0226 -0.009,0.0505 -0.006,0.006 -0.0169,0.0156 -0.034,0.0296 -0.0169,0.014 -0.0353,0.031 -0.055,0.0506 -0.0197,0.0197 -0.038,0.038 -0.055,0.055 -0.0169,0.0169 -0.0254,0.0282 -0.0254,0.034 -1e-5,0.006 -0.001,0.0324 -0.004,0.0803 -0.002,0.0479 -0.004,0.0858 -0.004,0.11384 0,0.0282 0.001,0.0719 0.004,0.13098 0.002,0.0592 0.004,0.0916 0.004,0.0972 0.006,0.0168 0.0184,0.0464 0.0381,0.0887 0.0198,0.0422 0.0324,0.0662 0.038,0.072 0.006,0.006 0.0182,0.01 0.038,0.0126 0.0198,0.002 0.0353,0.004 0.0464,0.004 0.0114,1e-5 0.0283,-0.001 0.0508,-0.004 0.0226,-0.002 0.0365,-0.004 0.042,-0.004 0.006,0 0.0198,-0.0127 0.0422,-0.038 0.0226,-0.0253 0.0352,-0.0395 0.038,-0.0422 0.003,-0.003 0.01,-0.006 0.0211,-0.009 0.0113,-0.003 0.0197,-0.004 0.0254,-0.004 0.006,1e-5 0.0198,0.003 0.0422,0.009 0.006,0.006 0.0198,0.0184 0.0422,0.038 0.0226,0.0197 0.0366,0.0352 0.0422,0.0466 l 0.0844,0.16888 c 0.006,0.0112 0.0184,0.0267 0.038,0.0465 0.0197,0.0198 0.0352,0.0325 0.0465,0.0382 0.0564,0.0337 0.13244,0.0745 0.22819,0.12234 0.0958,0.0479 0.18865,0.0943 0.27873,0.13936 0.09,0.045 0.1675,0.083 0.23231,0.1141 0.0648,0.0311 0.10008,0.0465 0.10572,0.0465 l 0.0844,0 c 0,-0.73226 -0.0197,-1.11249 -0.059,-1.14069 -0.0394,-0.0282 -0.0858,-0.0606 -0.13936,-0.0972 -0.0535,-0.0366 -0.10848,-0.0732 -0.16477,-0.1098 -0.0563,-0.0366 -0.10416,-0.0661 -0.14374,-0.0887 -0.0282,-0.0168 -0.0648,-0.0394 -0.1098,-0.0676 -0.045,-0.0282 -0.0901,-0.055 -0.13512,-0.0803 -0.045,-0.0253 -0.0845,-0.0493 -0.11822,-0.0718 -0.0338,-0.0225 -0.0535,-0.0337 -0.0592,-0.0337 -0.0282,-0.0112 -0.0846,-0.0224 -0.16902,-0.0336 -0.0845,-0.0113 -0.14082,-0.0169 -0.16901,-0.0169 l 0,-0.28723 c 0.0282,0.0168 0.0845,0.0463 0.16901,0.0886 0.0845,0.0422 0.14082,0.069 0.16902,0.0803 l 0.0168,0 c 0.0226,0 0.0563,-0.004 0.10151,-0.0126 0.0451,-0.009 0.0733,-0.0126 0.0845,-0.0126 0,-0.0226 -0.006,-0.069 -0.0169,-0.13949 -0.0113,-0.0704 -0.0169,-0.12255 -0.0169,-0.15626 l 0,-0.017 c 0,-0.0112 0.0113,-0.0267 0.0337,-0.0464 0.0226,-0.0198 0.0366,-0.031 0.0422,-0.0337 0.006,-0.002 0.0142,-0.006 0.0254,-0.009 0.0113,-0.003 0.0197,-0.004 0.0254,-0.004 0.0112,1e-5 0.0253,0.003 0.0422,0.009 0.0112,0.0112 0.0267,0.0393 0.0464,0.0843 0.0198,0.045 0.0324,0.0732 0.0379,0.0846 0.0564,0.0564 0.086,0.0902 0.0888,0.10152 0.003,0.0113 0.004,0.0197 0.004,0.0251 0,0.006 -0.003,0.0198 -0.009,0.0422 l -0.16888,0.1774 c 0,0.0114 0.004,0.0297 0.0126,0.0551 0.009,0.0253 0.0126,0.0436 0.0126,0.0549 0.0226,1e-5 0.069,-0.006 0.13936,-0.0169 0.0703,-0.0113 0.12251,-0.0169 0.15638,-0.0169 l 0.0168,0 c 0.0113,1e-5 0.0269,0.0113 0.0466,0.0338 0.0197,0.0225 0.0324,0.0395 0.038,0.0507 l 0,0.16889 c 0.006,0.0114 0.0184,0.0269 0.038,0.0465 0.0197,0.0197 0.0324,0.031 0.038,0.0338 0.006,0.003 0.0142,0.006 0.0254,0.009 0.0113,0.003 0.0197,0.004 0.0254,0.004 0.006,0 0.0195,-0.003 0.042,-0.009 0.0226,-0.0112 0.0493,-0.0267 0.0803,-0.0464 0.0311,-0.0198 0.0465,-0.0325 0.0465,-0.0381 l 0,-1.01383 c 0,-0.006 0.0282,-0.0184 0.0845,-0.038 0.0563,-0.0197 0.0985,-0.0351 0.12673,-0.0463 l 0.14362,-0.009 c -1e-5,0.0168 -0.007,0.0605 -0.0211,0.13086 -0.0142,0.0704 -0.0268,0.11405 -0.038,0.13098 -0.0113,0.0169 -0.0352,0.0353 -0.0718,0.055 -0.0366,0.0197 -0.0662,0.0295 -0.0887,0.0295 l -0.009,0 0,1.05612 c 0.0114,10e-6 0.034,0.007 0.0677,0.0211 0.0337,0.0142 0.0619,0.0211 0.0845,0.0211 l 0.017,0 c 0.0112,-0.006 0.0337,-0.0198 0.0676,-0.0422 0.0338,-0.0226 0.0677,-0.0478 0.10152,-0.076 0.0337,-0.0281 0.0676,-0.0548 0.10129,-0.0802 0.0337,-0.0253 0.0563,-0.0437 0.0676,-0.0549 0.0113,-0.0113 0.0253,-0.038 0.0422,-0.0803 0.0169,-0.0422 0.031,-0.0719 0.0421,-0.0887 l 0,-0.0846 c -0.006,-0.0114 -0.0212,-0.0395 -0.0466,-0.0846 -0.0253,-0.045 -0.038,-0.0731 -0.038,-0.0844 0,-0.006 -10e-4,-0.0254 -0.004,-0.0592 -0.002,-0.0337 -0.004,-0.0563 -0.004,-0.0677 0,-0.0168 0.001,-0.0408 0.004,-0.0718 0.002,-0.0311 0.004,-0.0493 0.004,-0.0549 0,-0.006 0.0127,-0.0198 0.038,-0.0422 0.0253,-0.0224 0.0409,-0.0366 0.0466,-0.0422 0.0114,-0.0168 0.0269,-0.0576 0.0466,-0.12246 0.0197,-0.0648 0.0324,-0.10848 0.038,-0.131 l 0.25346,0.25346 c -0.0225,0.0112 -0.0535,0.0379 -0.093,0.0802 -0.0395,0.0423 -0.0648,0.0719 -0.076,0.0887 l 0,0.0255 c 0,0.0394 0.009,0.0915 0.0252,0.15625 0.0168,0.0648 0.0253,0.10848 0.0253,0.13098 0.0113,1e-5 0.017,0.006 0.017,0.0168 -1e-5,0.006 0.002,0.009 0.008,0.009 l 0.009,0 c 0.0114,-0.006 0.0423,-0.0268 0.0931,-0.0635 0.0507,-0.0366 0.10416,-0.0732 0.1605,-0.1098 0.0563,-0.0366 0.10981,-0.0718 0.16051,-0.10561 0.0508,-0.0337 0.0788,-0.0521 0.0845,-0.0549 0.006,-0.003 0.0183,-0.006 0.038,-0.009 0.0198,-0.002 0.0353,-0.004 0.0464,-0.004 0.0113,1e-5 0.0283,0.001 0.0508,0.004 0.0226,0.002 0.0366,0.004 0.0422,0.004 0.0168,0.006 0.0463,0.0184 0.0886,0.038 0.0423,0.0197 0.069,0.0352 0.0803,0.0466 0.0168,0.0168 0.0464,0.0577 0.0887,0.12247 0.0422,0.0648 0.069,0.10848 0.0802,0.13098 -0.028,-0.006 -0.0786,-0.01 -0.15187,-0.0127 -0.0732,-0.003 -0.14929,-0.004 -0.22819,-0.004 -0.0788,0 -0.15497,10e-4 -0.22819,0.004 -0.0732,0.003 -0.1169,0.006 -0.13098,0.009 -0.0141,0.003 -0.0352,0.014 -0.0633,0.0337 -0.0281,0.0197 -0.0605,0.0422 -0.0971,0.0676 -0.0366,0.0253 -0.0732,0.0535 -0.10981,0.0846 -0.0366,0.0311 -0.0661,0.055 -0.0887,0.0718 -0.0114,0.0114 -0.0283,0.0269 -0.0508,0.0466 -0.0226,0.0197 -0.0338,0.0324 -0.0338,0.038 -0.006,0.0112 -0.0113,0.0336 -0.0169,0.0675 -0.006,0.0338 -0.0126,0.069 -0.0211,0.1056 -0.009,0.0366 -0.017,0.0719 -0.0254,0.10572 -0.009,0.0338 -0.0155,0.0536 -0.0211,0.0592 -0.006,0.006 -0.014,0.009 -0.0252,0.009 -0.0168,0 -0.031,-0.003 -0.0422,-0.009 l -0.27048,0 c -0.0112,10e-6 -0.0379,0.0113 -0.0802,0.0339 -0.0422,0.0226 -0.0719,0.0395 -0.0887,0.0506 -0.0112,0.0114 -0.0281,0.0269 -0.0507,0.0465 -0.0226,0.0197 -0.0339,0.0324 -0.0339,0.038 l 0,1.77421 c 0.0564,0.0564 0.10428,0.0733 0.14375,0.0508 0.0395,-0.0226 0.0874,-0.0521 0.14362,-0.0887 0.0563,-0.0366 0.11263,-0.0746 0.16902,-0.11409 0.0564,-0.0395 0.1014,-0.0732 0.1351,-0.1014 0.0168,-0.0112 0.0422,-0.0337 0.0761,-0.0676 0.0338,-0.0338 0.0677,-0.0677 0.10151,-0.10151 0.0337,-0.0337 0.0661,-0.0676 0.0971,-0.10129 0.031,-0.0338 0.0521,-0.0563 0.0632,-0.0676 0.0113,-0.0113 0.0352,-0.0464 0.0718,-0.10561 0.0366,-0.0592 0.0775,-0.12393 0.12261,-0.19441 0.0451,-0.0704 0.0888,-0.14091 0.13098,-0.2113 0.0422,-0.0703 0.0745,-0.12527 0.0971,-0.16463 0.0114,-0.0168 0.0254,-0.0436 0.0422,-0.0802 0.0168,-0.0366 0.0352,-0.0732 0.055,-0.10981 0.0198,-0.0366 0.0367,-0.069 0.0508,-0.0972 0.014,-0.0282 0.0211,-0.0451 0.0211,-0.0508 l 0,-0.25346 c 0.006,-0.0112 0.0322,-0.0266 0.0801,-0.0464 0.0479,-0.0198 0.0775,-0.0325 0.0888,-0.0382 0.0114,-0.0112 0.0396,-0.0379 0.0846,-0.0802 0.045,-0.0422 0.0731,-0.0719 0.0843,-0.0887 0.006,-0.006 0.0156,-0.0212 0.0296,-0.0465 0.014,-0.0253 0.031,-0.0521 0.0506,-0.0802 0.0197,-0.0281 0.0379,-0.0549 0.055,-0.0802 0.0169,-0.0253 0.0282,-0.0408 0.0339,-0.0465 0.0112,-0.0112 0.0252,-0.0196 0.0421,-0.0253 0.0169,-0.006 0.031,-0.009 0.0421,-0.009 l 0,0.54069 c -0.0226,0.006 -0.0661,0.0184 -0.13085,0.038 -0.0647,0.0197 -0.1056,0.0352 -0.12261,0.0466 -0.0112,0.006 -0.0252,0.0183 -0.0421,0.038 -0.0169,0.0197 -0.031,0.0352 -0.0421,0.0466 l -0.0846,0.16889 c 0,0.006 -10e-4,0.0198 -0.004,0.0422 -0.003,0.0226 -0.004,0.0394 -0.004,0.0505 -1e-5,0.0114 0.003,0.0367 0.009,0.0761 0.006,0.0114 0.0296,0.0269 0.0718,0.0466 0.0422,0.0197 0.0745,0.0324 0.0971,0.038 0.006,0 0.0198,0.001 0.0422,0.004 0.0226,0.003 0.0395,0.004 0.0508,0.004 0.0112,10e-6 0.0365,-0.003 0.0761,-0.009 0.006,0 0.0209,-0.009 0.0463,-0.0254 0.0253,-0.0169 0.0521,-0.0353 0.0803,-0.055 0.0282,-0.0197 0.055,-0.038 0.0803,-0.055 0.0253,-0.0169 0.0408,-0.0282 0.0465,-0.0336 l 0.16889,-0.0846 0.0846,0 -0.16914,0.16889 c -0.0168,0.0114 -0.045,0.0339 -0.0845,0.0677 -0.0395,0.0338 -0.0817,0.0676 -0.12674,0.10129 -0.045,0.0337 -0.0872,0.0676 -0.12672,0.10129 -0.0395,0.0338 -0.0676,0.0564 -0.0845,0.0677 0.006,0.0112 0.0183,0.0267 0.038,0.0464 0.0197,0.0198 0.0352,0.0325 0.0465,0.0382 0.0168,0.006 0.0492,0.0139 0.0971,0.0251 0.0479,0.0113 0.1,0.0211 0.15626,0.0296 0.0563,0.009 0.10837,0.0156 0.15638,0.0211 0.048,0.006 0.0804,0.009 0.0972,0.009 l 0.0844,0.25346 c -0.0168,0 -0.045,-0.001 -0.0845,-0.004 -0.0395,-0.002 -0.0817,-0.004 -0.12674,-0.004 -0.045,0 -0.0872,0.001 -0.12672,0.004 -0.0395,0.002 -0.0676,0.004 -0.0845,0.004 -0.0112,0 -0.0394,0.0113 -0.0845,0.0337 -0.0451,0.0226 -0.0733,0.0395 -0.0845,0.0507 0,-0.0168 -0.007,-0.0408 -0.0211,-0.0718 -0.014,-0.0311 -0.031,-0.0648 -0.0506,-0.1014 -0.0197,-0.0366 -0.0379,-0.0704 -0.055,-0.10129 -0.0169,-0.031 -0.0282,-0.0492 -0.0339,-0.055 -0.006,-0.006 -0.0183,-0.0113 -0.038,-0.0169 -0.0197,-0.006 -0.0352,-0.009 -0.0465,-0.009 -0.0112,0 -0.028,0.003 -0.0505,0.009 -0.0225,0.006 -0.0366,0.009 -0.0422,0.009 -0.0168,0.0114 -0.0464,0.0382 -0.0887,0.0803 -0.0422,0.0422 -0.069,0.0718 -0.0802,0.0888 -0.0114,0.0226 -0.017,0.0506 -0.017,0.0843 0,0.045 0.006,0.0732 0.017,0.0846 -0.017,0 -0.0452,0.003 -0.0846,0.009 -0.0394,0.006 -0.0816,0.0127 -0.12672,0.0211 -0.0451,0.009 -0.0874,0.0182 -0.12673,0.0295 -0.0394,0.0113 -0.0676,0.0197 -0.0846,0.0254 -0.006,0 -0.0409,0.0211 -0.1056,0.0633 -0.0647,0.0422 -0.11402,0.0774 -0.14788,0.1056 -0.0394,0.0282 -0.09,0.0648 -0.152,0.10981 -0.0619,0.045 -0.12535,0.0901 -0.19015,0.13511 -0.0648,0.045 -0.12115,0.0845 -0.16902,0.11835 -0.0479,0.0338 -0.0746,0.0535 -0.0803,0.059 -0.0168,0.017 -0.0408,0.0382 -0.0717,0.0636 -0.031,0.0253 -0.059,0.0521 -0.0845,0.0802 -0.0253,0.0281 -0.0479,0.0521 -0.0677,0.0718 -0.0198,0.0198 -0.0296,0.0325 -0.0296,0.0382 l 0,0.6758 0.0846,0.0846 c 0,-0.0282 0.0211,-0.0746 0.0635,-0.13949 0.0422,-0.0648 0.0774,-0.10284 0.10549,-0.11397 0.0114,-0.006 0.0396,0.006 0.0846,0.0336 0.045,0.0281 0.0732,0.045 0.0846,0.0507 l 0.0844,0 c 0.006,0 0.0296,-0.0113 0.0719,-0.0338 0.0422,-0.0226 0.0746,-0.0394 0.0972,-0.0505 0.0394,-0.0225 0.0999,-0.0564 0.18153,-0.10151 0.0816,-0.0451 0.16192,-0.0902 0.24082,-0.13524 0.0788,-0.045 0.15075,-0.0845 0.21555,-0.11822 0.0648,-0.0338 0.1056,-0.0564 0.12248,-0.0677 l 0.25346,-0.16889 c 0.0168,-0.0168 0.0464,-0.045 0.0887,-0.0845 0.0422,-0.0395 0.0859,-0.0817 0.13099,-0.12686 0.045,-0.0451 0.0872,-0.0873 0.12673,-0.12672 0.0395,-0.0394 0.0648,-0.0676 0.076,-0.0846 l 0.0846,-0.16889 c 0.0114,-0.0112 0.0269,-0.0281 0.0465,-0.0507 0.0197,-0.0225 0.0324,-0.0339 0.038,-0.0339 0.0226,-0.006 0.0662,-0.0125 0.13099,-0.021 0.0648,-0.009 0.10561,-0.0127 0.12247,-0.0127 l 0,0.62527 c -0.0168,0 -0.0492,0.003 -0.0972,0.009 -0.048,0.006 -0.10007,0.0127 -0.15638,0.0211 -0.0563,0.009 -0.10837,0.0182 -0.15626,0.0295 -0.0479,0.0113 -0.0803,0.0197 -0.0971,0.0254 -0.045,0.0168 -0.1014,0.0421 -0.16901,0.076 -0.0677,0.0337 -0.13245,0.069 -0.19442,0.1056 -0.0619,0.0366 -0.11547,0.0704 -0.1605,0.10152 -0.045,0.0311 -0.0676,0.0494 -0.0676,0.0551 l 0,0.0844 0.50692,0 0,0.20291 c -0.0282,1e-5 -0.0845,0.006 -0.16901,0.0169 -0.0845,0.0113 -0.14083,0.0224 -0.16902,0.0336 -0.0226,0.006 -0.0534,0.0296 -0.0928,0.072 -0.0394,0.0422 -0.0647,0.0746 -0.0761,0.0972 -0.0114,-0.006 -0.0269,-0.0184 -0.0465,-0.0382 -0.0197,-0.0198 -0.0323,-0.0353 -0.0379,-0.0465 -0.006,-0.0113 -0.0182,-0.0408 -0.038,-0.0887 -0.0198,-0.0479 -0.0324,-0.0732 -0.038,-0.076 -0.006,-0.002 -0.0239,-0.006 -0.055,-0.009 -0.0311,-0.003 -0.055,-0.004 -0.0718,-0.004 -0.0168,2e-5 -0.0422,0.001 -0.0761,0.004 -0.0338,0.003 -0.0535,0.004 -0.059,0.004 -0.0114,0 -0.0382,0.0113 -0.0803,0.0337 -0.0422,0.0226 -0.0718,0.0394 -0.0888,0.0505 -0.0112,0.006 -0.0267,0.0184 -0.0465,0.038 -0.0198,0.0197 -0.0324,0.0352 -0.038,0.0464 -0.006,0.0113 -0.0182,0.0409 -0.038,0.0888 -0.0198,0.048 -0.0353,0.0747 -0.0466,0.0803 -0.0113,0.006 -0.038,0.0126 -0.0802,0.021 -0.0422,0.009 -0.0858,0.0169 -0.13086,0.0254 -0.045,0.009 -0.0887,0.017 -0.13098,0.0254 -0.0422,0.009 -0.0691,0.0126 -0.0804,0.0126 -0.0112,0.006 -0.0393,0.0184 -0.0844,0.038 -0.045,0.0197 -0.0732,0.0352 -0.0846,0.0466 -0.0112,0.006 -0.0267,0.0196 -0.0465,0.0421 -0.0198,0.0227 -0.0325,0.0367 -0.0382,0.0421 l 0,0.0507 c 0,0.0338 0,0.0846 0,0.15213 0,0.0619 0.003,0.13794 0.009,0.22819 0.0168,0.0112 0.0253,0.0224 0.0253,0.0338 0,0.028 -0.009,0.042 -0.0253,0.042 0.006,0.13528 0.0113,0.27893 0.0169,0.43098 0.006,0.15203 0.0112,0.29287 0.0169,0.42247 0.006,0.12961 0.01,0.23945 0.0127,0.32952 0.003,0.0901 0.004,0.13795 0.004,0.14362 l -0.46464,0 z m 1.60532,-3.37954 0,0.27048 c -0.0789,0 -0.13102,-0.0295 -0.15638,-0.0887 -0.0253,-0.0592 -0.038,-0.11972 -0.038,-0.18177 z m -2.50931,1.35187 c 0,0.0112 -0.003,0.0394 -0.009,0.0845 -0.006,0.0451 -0.0114,0.0733 -0.017,0.0846 -0.006,0.0113 -0.0183,0.0268 -0.038,0.0464 -0.0197,0.0197 -0.035,0.0324 -0.0462,0.038 -0.0114,-0.006 -0.0269,-0.0184 -0.0465,-0.038 -0.0197,-0.0197 -0.0324,-0.0352 -0.038,-0.0464 -0.006,-0.0113 -0.0113,-0.0395 -0.0169,-0.0846 -0.006,-0.0451 -0.009,-0.0732 -0.009,-0.0845 z m 2.76277,-0.16889 c -0.045,0.028 -0.0816,0.066 -0.1098,0.11384 -0.0282,0.0479 -0.048,0.0944 -0.0593,0.13962 l 0,0.0844 0.009,0 c 0.0226,0 0.0521,-0.01 0.0887,-0.0295 0.0366,-0.0197 0.0606,-0.0379 0.0719,-0.0548 0.006,-0.006 0.01,-0.024 0.0125,-0.0551 0.003,-0.0311 0.004,-0.055 0.004,-0.0718 -1e-5,-0.0112 -0.001,-0.0323 -0.004,-0.0634 -0.003,-0.0311 -0.007,-0.0521 -0.0125,-0.0633 z m -0.0846,-1.61384 c 0,-0.0225 -0.014,-0.0337 -0.0422,-0.0337 -0.0282,0 -0.0422,0.0113 -0.0422,0.0337 l 0,0.009 c 0.0114,0.0282 0.0254,0.0422 0.0422,0.0422 0.0168,0 0.031,-0.014 0.0422,-0.0422 z"
	   id="pdm_pt_123"
         style="fill:param(fill) #FFF;fill-opacity:1"
         inkscape:connector-curvature="0"
         inkscape:label="123" 
	   />
  </g>
</svg>
