<!--
113.svg
copyright: (C) 2014 Grupo Utilizadores QGIS Portugal
email: qgis.portugal@gmail.com
Este ficheiro é software livre; você pode redistribuí-lo
e/ou modificá-lo nos termos da Licença Pública Geral GNU
versão 2 (GPL2) como publicada pela Fundação do
Software Livre (FSF).
-->
<?xml version="1.0" encoding="UTF-8" standalone="no"?>
<!-- Created with Inkscape (http://www.inkscape.org/) -->

<svg
   xmlns:dc="http://purl.org/dc/elements/1.1/"
   xmlns:cc="http://creativecommons.org/ns#"
   xmlns:rdf="http://www.w3.org/1999/02/22-rdf-syntax-ns#"
   xmlns:svg="http://www.w3.org/2000/svg"
   xmlns="http://www.w3.org/2000/svg"
   xmlns:sodipodi="http://sodipodi.sourceforge.net/DTD/sodipodi-0.dtd"
   xmlns:inkscape="http://www.inkscape.org/namespaces/inkscape"
   version="1.2"
   width="580"
   height="580"
   id="svg2"
   inkscape:version="0.48.4 r9939"
   sodipodi:docname="113.svg">
  <sodipodi:namedview
     pagecolor="#ffffff"
     bordercolor="#666666"
     borderopacity="1"
     objecttolerance="10"
     gridtolerance="10"
     guidetolerance="10"
     inkscape:pageopacity="0"
     inkscape:pageshadow="2"
     inkscape:window-width="1366"
     inkscape:window-height="716"
     id="namedview2999"
     showgrid="false"
     inkscape:zoom="0.86034483"
     inkscape:cx="290"
     inkscape:cy="290"
     inkscape:window-x="-8"
     inkscape:window-y="-8"
     inkscape:window-maximized="1"
     inkscape:current-layer="svg2" />
  <defs
     id="defs4" />
  <metadata
     id="metadata7">
    <rdf:RDF>
      <cc:Work
         rdf:about="">
        <dc:format>image/svg+xml</dc:format>
        <dc:type
           rdf:resource="http://purl.org/dc/dcmitype/StillImage" />
        <dc:title></dc:title>
      </cc:Work>
    </rdf:RDF>
  </metadata>
  <g
     transform="matrix(17.97992,0,0,17.97992,-2152.7126,-2994.9753)"
     id="layer1">
    <g
       id="flowRoot2985">
      <path
         d="m 123.32349,180.62122 0,-0.0793 c -0.0269,-0.0268 -0.0403,-0.0403 -0.0403,-0.0403 0,-0.0268 0,-0.0403 0,-0.0403 0,-0.0529 -0.013,-0.0928 -0.0391,-0.11963 0,-0.0537 0.007,-0.1072 0.0195,-0.16052 0.013,-0.0533 0.0195,-0.10639 0.0195,-0.1593 l 0,-0.36011 c -0.0797,-0.10659 -0.093,-0.19997 -0.0397,-0.28015 0.0533,-0.0801 0.12024,-0.14667 0.20081,-0.19959 l 0,-0.20019 c 0,-0.10659 0.013,-0.17332 0.0391,-0.2002 0.0268,2e-5 0.0403,-0.0134 0.0403,-0.0403 -0.0529,-0.3198 0.0138,-0.66628 0.2002,-1.03943 0.18636,-0.37311 0.47973,-0.5731 0.88012,-0.59997 0.0529,-0.0268 0.13265,-0.0936 0.23926,-0.2002 l 0.0403,0 0.24048,-0.36011 c -0.0537,-0.0529 -0.0806,-0.0927 -0.0806,-0.11963 -1e-5,-0.16029 0.0936,-0.25388 0.28076,-0.28076 l 0.0391,-0.0391 c 0,-0.0268 0.0134,-0.0537 0.0403,-0.0806 -0.26692,-0.21319 -0.32023,-0.33974 -0.15991,-0.37964 0.16032,-0.0398 0.33366,-0.0866 0.52002,-0.14038 0.13346,-0.13344 0.22664,-0.2136 0.27954,-0.24048 -0.0529,-0.0529 -0.0861,-0.0993 -0.0995,-0.13916 -0.0134,-0.0399 -0.0466,-0.0866 -0.0995,-0.14038 l -0.0806,0 c 0,-0.0268 -0.007,-0.0669 -0.0201,-0.12024 -0.0134,-0.0533 -0.0201,-0.093 -0.0201,-0.11901 0,-0.0268 -0.013,-0.0403 -0.0391,-0.0403 l 0,-0.0403 -0.0403,-0.0806 0,-0.0391 c -0.0269,-0.0537 -0.0537,-0.12713 -0.0806,-0.22034 -0.0269,-0.0931 -0.0533,-0.20647 -0.0794,-0.33996 -0.13347,-0.21319 -0.16032,-0.39325 -0.0806,-0.54016 0.0798,-0.14687 0.18636,-0.28705 0.31983,-0.42054 -0.21322,3e-5 -0.33326,-0.0399 -0.36011,-0.11962 0.13346,0.0269 0.23356,0.0204 0.30029,-0.0195 0.0667,-0.0399 0.1534,-0.0598 0.26001,-0.0598 0.0798,-0.0268 0.17334,-0.0936 0.28077,-0.2002 l 0,-0.0806 c -1e-5,-0.0529 0.013,-0.0927 0.0391,-0.11963 0.0537,-0.21319 0.16723,-0.3731 0.34057,-0.47974 0.17334,-0.10658 0.35319,-0.18674 0.53956,-0.24048 -0.0269,-0.0268 -0.0403,-0.0533 -0.0403,-0.0793 0,-0.0537 0.0268,-0.0805 0.0806,-0.0806 0.0268,3e-5 0.0403,0.0533 0.0403,0.15991 0.10661,-0.0529 0.18636,-0.0793 0.23926,-0.0793 0.13346,3e-5 0.21362,-0.0134 0.24048,-0.0403 -0.0269,-0.1603 0.0264,-0.30719 0.15991,-0.44068 0,-0.0797 0.0533,-0.13303 0.15991,-0.15991 0.0268,3e-5 0.047,-0.006 0.0604,-0.0195 0.0134,-0.013 0.0332,-0.0195 0.0592,-0.0195 -0.026,-0.0268 -0.0391,-0.0537 -0.0391,-0.0806 l 0,-0.0403 c -1e-5,-0.0529 0.0798,-0.10618 0.23926,-0.15991 -0.10662,-0.0268 -0.15992,-0.12001 -0.15992,-0.27955 -0.0797,3e-5 -0.13306,-0.0134 -0.15991,-0.0403 l 0,-0.0403 c 0,-0.0529 0.0266,-0.086 0.08,-0.0995 0.0533,-0.0134 0.0934,-0.0335 0.12024,-0.0604 0.0268,-0.0797 0.0403,-0.25307 0.0403,-0.52002 l 0,-0.0403 c 0,-0.13262 -0.007,-0.27239 -0.0201,-0.41931 -0.0134,-0.14686 -0.0202,-0.30006 -0.0201,-0.45959 -1e-5,-0.29376 0.1066,-0.52081 0.31982,-0.68116 l 0,-0.11962 c 0.0537,-0.0529 0.14058,-0.0927 0.26062,-0.11963 0.12003,-0.0268 0.2065,-0.0537 0.2594,-0.0806 l 0.0806,0 -0.0403,0.0403 0.2002,0 0.23926,-0.27954 0.20019,0 c 0,0.0261 0.007,0.0792 0.0201,0.1593 0.0134,0.0802 0.0336,0.1337 0.0604,0.16053 l 0.23926,0 c 0.0268,3e-5 0.047,0.0267 0.0604,0.0799 0.0134,0.0533 0.0201,0.0934 0.0201,0.12024 l 0.39917,0 c 0,0.10664 0.0667,0.15994 0.2002,0.15991 0.0806,3e-5 0.14729,-0.0268 0.20019,-0.0806 -0.0269,-0.0268 -0.0403,-0.0533 -0.0403,-0.0794 -1e-5,-0.0537 0.0268,-0.0805 0.0806,-0.0806 0.0529,3e-5 0.0793,0.0399 0.0793,0.11962 0.18717,-0.10657 0.34749,-0.26648 0.48096,-0.47973 -0.0269,-0.0268 -0.0403,-0.10658 -0.0403,-0.23926 l 0,-0.0806 c 0.0268,-0.0529 0.0734,-0.086 0.13977,-0.0995 0.0663,-0.0134 0.1129,-0.0201 0.13977,-0.0201 l 0,-0.52002 c 0.0268,3e-5 0.0736,0.007 0.14038,0.0201 0.0667,0.0135 0.10009,0.0202 0.1001,0.0201 -1e-5,3e-5 0.007,0.007 0.0201,0.0195 0.0134,0.013 0.0466,0.033 0.0995,0.0598 0.0537,-0.10657 0.15379,-0.14645 0.30029,-0.11962 0.14647,0.0269 0.29967,0.0735 0.45959,0.13977 0.1599,0.0663 0.32002,0.13288 0.48035,0.19958 0.16031,0.0668 0.28034,0.10013 0.36011,0.1001 0.2132,-0.0529 0.35969,0.0139 0.43945,0.20019 0.0268,-0.0268 0.0403,-0.0403 0.0403,-0.0403 0.0268,3e-5 0.0403,3e-5 0.0403,0 -1e-5,-0.026 0.0134,-0.0525 0.0403,-0.0793 l 0.0794,0 c 0.0537,3e-5 0.10049,0.02 0.14038,0.0598 0.0399,0.0399 0.0598,0.0598 0.0598,0.0598 0.0268,4e-5 0.0602,-0.0199 0.1001,-0.0598 0.0399,-0.0399 0.0598,-0.0598 0.0598,-0.0598 0.0537,0.0269 0.0871,0.0535 0.1001,0.0799 0.013,0.0265 0.0464,0.0666 0.1001,0.12024 0.2132,-0.13343 0.37311,-0.20016 0.47973,-0.20019 0.1066,3e-5 0.17333,0.0134 0.2002,0.0403 -1e-5,-0.0268 0.0268,-0.0403 0.0806,-0.0403 l 0.0391,0 c 0.1603,0.21324 0.32042,0.31314 0.48035,0.29968 0.15989,-0.0134 0.32001,-0.0201 0.48034,-0.0201 0.1066,3e-5 0.1599,0.0269 0.15991,0.0806 l 0.95948,0 c 0.0268,0.0261 0.0602,0.0458 0.10009,0.0592 0.0399,0.0135 0.0598,0.0202 0.0598,0.0201 0.13345,-0.0268 0.23354,-0.0868 0.30029,-0.18006 0.0667,-0.0931 0.16682,-0.13973 0.30029,-0.13977 0.0529,4e-5 0.10599,0.0135 0.15931,0.0403 0.0533,0.0269 0.10679,0.0403 0.16052,0.0403 0.0268,3e-5 0.12694,-0.0333 0.30029,-0.1001 0.17333,-0.0667 0.28644,-0.10006 0.33936,-0.10009 l 0.0403,0 c 0.13345,3e-5 0.19347,0.0399 0.18005,0.11962 -0.0134,0.0798 0.007,0.14652 0.0604,0.2002 0.10659,-0.0537 0.21991,-0.0738 0.33997,-0.0604 0.12001,0.0135 0.21991,0.0869 0.29968,0.22034 l 0,0.0403 c 0.13344,0.0529 0.20018,0.11966 0.20019,0.2002 -1e-5,0.0261 -0.007,0.0458 -0.0201,0.0592 -0.0134,0.0135 -0.0202,0.0336 -0.0201,0.0604 0.13345,0.18639 0.28685,0.35302 0.4602,0.49988 0.17333,0.14692 0.32673,0.31354 0.46021,0.49987 -2e-5,0.0538 0.013,0.0936 0.0391,0.11963 -2e-5,-0.0529 0.007,-0.0927 0.0201,-0.11963 0.0134,-0.0268 0.0201,-0.0667 0.0202,-0.11962 0.0537,0.0529 0.1072,0.11274 0.16052,0.17944 0.0533,0.0668 0.11981,0.15343 0.19958,0.26001 0.2132,0.16035 0.40648,0.32046 0.57984,0.48035 0.17332,0.15994 0.38002,0.26675 0.62011,0.32043 l 0,0.11963 0.2002,0 c 0.18634,0.45331 0.45957,0.83336 0.8197,1.14014 0.36009,0.30683 0.58002,0.56684 0.65979,0.78003 0.1603,-0.0537 0.33364,-0.0805 0.52002,-0.0806 0.21401,3e-5 0.34747,0.10663 0.40039,0.31982 l 0,0.0403 0.0403,0 0,0.0806 c -3e-5,0.15953 -0.10664,0.30602 -0.31983,0.43946 l 0.0794,0.0806 0,0.0794 c -0.0269,0.0269 -0.0535,0.047 -0.08,0.0604 -0.0265,0.0135 -0.0531,0.0336 -0.08,0.0604 -2e-5,0.13267 0.0667,0.31903 0.2002,0.55908 0.13344,0.2401 0.25348,0.36013 0.36011,0.36011 0.29294,0.0537 0.5261,0.23379 0.69946,0.54016 0.17332,0.30642 0.32672,0.57965 0.46021,0.8197 0.18715,0.1872 0.29375,0.30723 0.31982,0.36011 l 0.0403,0 -0.0403,0.0403 c 0.0268,0.0537 0.047,0.10053 0.0604,0.14038 0.0134,0.0399 0.0335,0.0863 0.0604,0.13916 -0.16034,0.37356 -0.12718,0.68036 0.0995,0.92041 0.22662,0.24009 0.44654,0.50661 0.65979,0.79956 0.16029,0.24009 0.13384,0.42686 -0.0794,0.56031 -0.0806,0.0269 -0.14732,0.0668 -0.20019,0.11962 -0.0537,0.10745 -0.0938,0.19432 -0.12024,0.26062 -0.0265,0.0663 -0.0531,0.12637 -0.08,0.18006 -0.0269,0.0269 -0.0403,0.12005 -0.0403,0.27954 l 0.0403,0 c -3e-5,0.0806 -0.0135,0.13389 -0.0403,0.15991 -3e-5,0.0537 0.007,0.12067 0.0201,0.20081 0.0134,0.0802 0.0201,0.1467 0.0201,0.19958 0.0537,0.24009 0.027,0.4468 -0.08,0.62012 -0.10704,0.17336 -0.2405,0.32676 -0.40039,0.4602 -0.15993,0.13349 -0.32656,0.27346 -0.49987,0.41993 -0.17337,0.1465 -0.28649,0.31292 -0.33936,0.49926 l 0,0.0403 c 0.13263,0.24008 0.28562,0.32675 0.45898,0.26001 0.17332,-0.0667 0.35358,-0.0732 0.54078,-0.0195 l 0,0.0793 c -3e-5,0.10663 -0.0135,0.18678 -0.0403,0.24048 l 0,0.27954 c -0.0529,0.0269 -0.0861,0.0537 -0.0995,0.0806 -0.0135,0.0269 -0.0336,0.0533 -0.0604,0.0793 -0.10663,0.3467 -0.18679,0.52004 -0.24048,0.52002 l -0.0391,0 c -0.0806,0.3467 -0.0609,0.7068 0.0592,1.08032 0.12001,0.37355 0.23334,0.74709 0.33997,1.12061 0.29376,10e-6 0.44065,0.13307 0.44067,0.39917 -2e-5,0.26694 -0.14691,0.4004 -0.44067,0.40039 -0.29299,-0.0537 -0.49278,0.013 -0.59937,0.2002 0.0268,0.0269 0.0403,0.10662 0.0403,0.23925 0.026,-0.026 0.0525,-0.0391 0.0793,-0.0391 0.0268,1e-5 0.0537,-0.0134 0.0806,-0.0403 0.24005,-0.13345 0.45326,-0.16011 0.63965,-0.08 0.18633,0.0802 0.31959,0.22015 0.39978,0.41992 0.0801,0.1998 0.10027,0.41302 0.0604,0.63965 -0.0399,0.22666 -0.14,0.40671 -0.30029,0.54016 -0.18639,0.18637 -0.33287,0.21323 -0.43945,0.0806 -0.0537,10e-6 -0.0806,-0.0134 -0.0806,-0.0403 l 0,-0.36011 c -0.0537,0.0798 -0.12047,0.11964 -0.20019,0.11963 -0.0529,0.0806 -0.11274,0.14751 -0.17945,0.2008 -0.0667,0.0533 -0.12698,0.10642 -0.18066,0.15931 -3e-5,0.26693 -0.0533,0.41382 -0.15991,0.44067 l -0.0403,0 c -2e-5,0.15951 -0.0399,0.29257 -0.11963,0.39917 0.10659,0.0269 0.15989,0.1469 0.15992,0.36011 -3e-5,0.16032 -0.0668,0.24048 -0.2002,0.24047 -0.10663,1e-5 -0.15994,-0.0268 -0.15991,-0.0806 -0.0261,0.0806 -0.0659,0.14731 -0.11963,0.20019 0.0268,0.16033 -0.013,0.30702 -0.11963,0.44007 -0.10663,0.13306 -0.22667,0.22645 -0.36011,0.28015 l 0.0403,0.0403 -0.16114,0 c -0.0261,0.026 -0.0391,0.0794 -0.0391,0.15991 l 0,0.23926 -0.0806,0.0403 c -0.0269,0.13348 -0.0535,0.2468 -0.0799,0.33997 -0.0265,0.0932 -0.0531,0.16663 -0.08,0.22034 -0.0269,0.18637 -0.14691,0.27955 -0.36011,0.27954 -0.15952,0.0269 -0.30601,4.1e-4 -0.43945,-0.0793 -0.0269,0.0269 -0.0537,0.0403 -0.0806,0.0403 -0.0269,0 -0.0533,-0.0134 -0.0794,-0.0403 -0.0537,0.0529 -0.10704,0.0794 -0.15991,0.0793 -0.16034,0.13347 -0.32066,0.13347 -0.48096,0 -0.0798,-0.026 -0.18638,-0.13264 -0.31982,-0.31983 -2e-5,0.0537 -0.007,0.0871 -0.0202,0.1001 -0.0134,0.013 -0.0202,0.0195 -0.0201,0.0195 l -0.0793,0 c -0.16034,1e-5 -0.25352,-0.0533 -0.27954,-0.15991 l -0.0403,0 c -0.31984,-0.21321 -0.53326,-0.26651 -0.64026,-0.15991 -0.10703,0.10661 -0.18699,0.15992 -0.23986,0.15991 -0.29381,10e-6 -0.42727,-0.0466 -0.40039,-0.13977 0.0268,-0.0932 0.0736,-0.17313 0.14038,-0.23987 0.0667,-0.0667 0.0866,-0.0867 0.0598,-0.0598 -0.0269,0.0269 -0.21364,0.1469 -0.5603,0.36011 -0.0261,0 -0.0391,-0.0134 -0.0391,-0.0403 -0.10744,0.0798 -0.22748,0.0932 -0.36011,0.0403 -0.18719,0 -0.33409,-0.0936 -0.44068,-0.28077 -0.0529,0.0537 -0.0861,0.094 -0.0995,0.12085 -0.0135,0.0269 -0.047,0.0667 -0.10071,0.11963 l 0,0.0403 c -0.0529,0.0529 -0.0928,0.0794 -0.11963,0.0793 -0.29299,0.29379 -0.59979,0.44068 -0.92041,0.44068 -0.0261,-0.0269 -0.0659,-0.0403 -0.11963,-0.0403 -0.0269,1e-5 -0.0533,-0.0134 -0.0793,-0.0403 -0.0537,0.0269 -0.0873,0.0537 -0.10071,0.0806 -0.0135,0.0269 -0.0202,0.0403 -0.0201,0.0403 l -0.2002,0 0,-0.15991 c -0.31984,-0.0269 -0.61972,0.0663 -0.89966,0.27954 -0.27996,0.21322 -0.5534,0.39999 -0.82031,0.5603 -0.0529,0.026 -0.0928,0.0458 -0.11963,0.0592 -0.0269,0.0134 -0.0403,0.0202 -0.0403,0.0202 l 0,0.44067 c -0.0529,0 -0.10622,-0.0268 -0.15991,-0.0806 -0.0269,0.0269 -0.0468,0.0535 -0.0598,0.08 -0.013,0.0265 -0.0464,0.0665 -0.1001,0.12024 -0.0269,0.26693 -0.0468,0.52694 -0.0598,0.78003 -0.013,0.25309 -0.0196,0.5131 -0.0195,0.78003 -2e-5,0.26693 -2e-5,0.52002 0,0.75927 -2e-5,0.24008 0.013,0.49358 0.0391,0.7605 0.0805,0.40039 0.25389,0.69377 0.52002,0.88013 0.0268,-0.10661 0.0537,-0.15991 0.0806,-0.15991 0.0529,0 0.14606,0.06 0.27954,0.18005 0.13345,0.12004 0.30679,0.13977 0.52002,0.0592 0.0268,0 0.0602,0.0334 0.10009,0.10009 0.0399,0.0667 0.0598,0.1001 0.0598,0.1001 0.2132,0.0269 0.43333,0.0271 0.6604,6.1e-4 0.22703,-0.0265 0.44717,-0.0266 0.6604,-6.1e-4 0.0529,-0.21321 0.166,-0.26652 0.33936,-0.15991 0.17332,0.10661 0.29986,0.18677 0.37963,0.24048 0.32062,0.0797 0.60098,0.23966 0.84107,0.47973 0.13263,0.0798 0.19895,0.18636 0.19897,0.31983 0.0268,0.10661 -0.15972,0.18005 -0.55969,0.22033 -0.4,0.0403 -0.87323,0.0403 -1.41968,0 -0.54648,-0.0403 -1.09987,-0.13366 -1.66015,-0.28015 -0.56032,-0.14648 -0.97353,-0.35319 -1.23963,-0.62011 l -0.0403,-0.0403 c -1e-5,-0.026 -0.0134,-0.0525 -0.0403,-0.0793 -2e-5,-0.0269 -0.02,-0.0535 -0.0598,-0.08 -0.0399,-0.0265 -0.0733,-0.0665 -0.1001,-0.12024 l 0,-0.11963 c -0.29298,-0.72021 -0.43946,-1.41357 -0.43945,-2.08008 -1e-5,-0.37353 0.0199,-0.74686 0.0598,-1.11999 0.0399,-0.37312 0.0866,-0.74646 0.14038,-1.12 -0.0806,-0.34667 -0.12087,-0.7202 -0.12085,-1.1206 -2e-5,-0.1595 0.0401,-0.3127 0.12024,-0.4596 0.0801,-0.14688 0.12022,-0.28706 0.12024,-0.42053 -2e-5,-0.026 -0.0134,-0.0592 -0.0403,-0.0995 -0.0269,-0.0403 -0.0403,-0.0604 -0.0403,-0.0604 -0.18637,0.42725 -0.28627,0.92754 -0.29968,1.50085 -0.0134,0.57333 -0.0466,1.11309 -0.0995,1.61927 l 0,0.28076 c 0.0797,0.0529 0.11962,0.14608 0.11963,0.27954 -1e-5,0.0269 -0.007,0.0535 -0.0201,0.08 -0.0134,0.0264 -0.0202,0.0397 -0.0202,0.0397 -10e-6,0 -0.0132,0.0266 -0.0397,0.0799 -0.0265,0.0533 -0.0397,0.0934 -0.0397,0.12024 -0.0537,0.24008 -0.0739,0.49337 -0.0604,0.75989 0.0134,0.26652 0.007,0.54668 -0.0201,0.84046 -1e-5,0.0268 -0.0132,0.0669 -0.0397,0.12023 -0.0265,0.0533 -0.0397,0.10641 -0.0397,0.15931 l 0,0.0403 c -2e-5,0.0537 0.006,0.2004 0.0195,0.44006 0.013,0.23967 0.006,0.38636 -0.0195,0.44007 -2e-5,0.0268 -0.007,0.0734 -0.0201,0.13977 -0.0134,0.0663 -0.047,0.0995 -0.10071,0.0995 -0.0529,0.0537 -0.11964,0.0806 -0.2002,0.0806 -0.0529,0.0798 -0.18596,0.14649 -0.39917,0.2002 -0.26694,-0.0537 -0.52715,-0.0405 -0.78064,0.0397 -0.25351,0.0802 -0.51331,0.12024 -0.77942,0.12024 -0.18718,-0.10661 -0.4006,-0.13998 -0.64026,-0.1001 -0.23967,0.0399 -0.46652,0.12655 -0.68054,0.26001 -0.10661,0.10661 -0.21322,0.1532 -0.31982,0.13977 -0.10662,-0.0134 -0.19329,-0.0535 -0.26001,-0.12024 -0.0667,-0.0667 -0.10662,-0.1534 -0.11963,-0.26001 -0.013,-0.10661 0.0338,-0.21321 0.14038,-0.31982 0.24006,-0.29297 0.57332,-0.45288 0.99976,-0.47974 l 0.0793,-0.0806 0.0806,0.0806 0.11963,0 0.15991,-0.15991 c 0.1066,0 0.18676,0.0264 0.24048,0.0794 l 0.11963,0.12084 c 0.0268,1e-5 0.0403,0.0134 0.0403,0.0403 l 0.0403,0 0.0403,0 0.0793,-0.0806 0.11963,0 c -1e-5,0.0269 0.0134,0.0403 0.0403,0.0403 0.16031,-0.0537 0.32714,-0.1005 0.50049,-0.14038 0.17333,-0.0399 0.36661,-0.0334 0.57984,0.0195 0.0529,-0.6128 0.1127,-1.24593 0.17944,-1.89942 0.0667,-0.65348 0.12694,-1.3269 0.18066,-2.02026 -0.0269,0 -0.0537,0.007 -0.0806,0.0201 -0.0269,0.0134 -0.0533,0.0202 -0.0794,0.0201 -0.37354,-0.21321 -0.68035,-0.31982 -0.92041,-0.31982 l 0,-0.0806 c -0.0798,-0.026 -0.22625,-0.0391 -0.43945,-0.0391 -0.16033,0 -0.29379,0.0533 -0.40039,0.15991 -0.10662,-0.0537 -0.21323,-0.11393 -0.31983,-0.18066 -0.10661,-0.0667 -0.18677,-0.16683 -0.24047,-0.3003 l -0.0794,-0.0793 c -0.18718,0.0529 -0.43397,0.11943 -0.74036,0.19958 -0.3064,0.0802 -0.55319,0.0136 -0.74035,-0.19958 -0.0269,0.0269 -0.0533,0.0403 -0.0794,0.0403 -0.0537,0.0529 -0.10702,0.0794 -0.15991,0.0794 l -0.0806,0 0,-0.43946 -0.0403,0 c -0.0529,0.026 -0.15951,0.0391 -0.31983,0.0391 l 0,-0.0794 -0.15991,0 c -0.0269,0.10661 -0.12004,0.15992 -0.27954,0.15991 -0.10661,1e-5 -0.15992,-0.0667 -0.15991,-0.20019 -0.0537,0 -0.12045,-0.0399 -0.2002,-0.11963 -0.18718,-0.0268 -0.32064,-0.0936 -0.40039,-0.2002 -0.0798,-0.1066 -0.15951,-0.22664 -0.23925,-0.36011 l -0.2002,0.2002 c -0.0537,-0.0537 -0.10702,-0.0806 -0.15991,-0.0806 -0.21404,0.0537 -0.4008,0.0407 -0.5603,-0.0391 -0.0269,0.026 -0.0936,0.0391 -0.2002,0.0391 -0.16032,1e-5 -0.24048,-0.0399 -0.24048,-0.11963 l 0,-0.11962 -0.19897,-0.2002 c -0.0269,0.0269 -0.0403,0.13347 -0.0403,0.31982 -0.21322,1e-5 -0.31982,-0.1066 -0.31982,-0.31982 -0.0269,0.0269 -0.0403,0.0802 -0.0403,0.15991 -10e-6,0.0798 -0.0134,0.13307 -0.0403,0.15991 -0.21322,0.21323 -0.45329,0.27996 -0.72021,0.2002 -0.0529,0.0537 -0.11963,0.0806 -0.2002,0.0806 -0.1595,0 -0.25268,-0.13346 -0.27954,-0.40039 -0.13346,-0.16032 -0.22664,-0.33366 -0.27954,-0.52002 l -0.0403,-0.0403 c -0.24008,0.18637 -0.46001,0.21974 -0.65979,0.1001 -0.19979,-0.11962 -0.33997,-0.29947 -0.42053,-0.53955 l 0,-0.0403 c -0.0269,-0.0268 -0.0403,-0.0667 -0.0403,-0.11963 0,-0.21402 0.0134,-0.36092 0.0403,-0.44068 -0.0529,-0.0529 -0.0793,-0.14606 -0.0793,-0.27954 0,-0.2132 0.0533,-0.33324 0.15991,-0.3601 0.0269,0.0269 0.0802,0.0403 0.15991,0.0403 l 0.23926,0 c 0.0537,-0.13346 0.12716,-0.28014 0.22034,-0.44006 0.0932,-0.15991 0.19307,-0.30659 0.29968,-0.44007 l 0,-0.15991 c 0,-0.0537 0.0535,-0.16723 0.16052,-0.34058 0.10702,-0.17333 0.21383,-0.29987 0.32044,-0.37964 l 0,-0.0403 c -0.0806,-0.0797 -0.13387,-0.18635 -0.15991,-0.31982 -0.26693,1e-5 -0.60059,-0.0667 -1.00098,-0.2002 -0.13265,-0.0529 -0.26571,-0.1127 -0.39917,-0.17944 -0.13346,-0.0667 -0.2535,-0.19367 -0.36011,-0.38086 -0.16032,-0.0529 -0.26692,-0.11962 -0.31982,-0.2002 -0.10661,2e-5 -0.15991,-0.0797 -0.15991,-0.23925 -0.16032,-0.40038 -0.0806,-0.76049 0.23925,-1.08033 0,-0.0268 0.0269,-0.0667 0.0806,-0.11963 0,-0.1603 -0.0134,-0.32713 -0.0403,-0.50048 -0.0269,-0.17333 0.013,-0.33975 0.11963,-0.49927 0.13346,-0.10659 0.25349,-0.23334 0.3601,-0.38025 0.10661,-0.14688 0.22665,-0.3135 0.36011,-0.49988 0,-0.1603 0.0533,-0.3605 0.15991,-0.60058 -0.34668,-0.1066 -0.59326,-0.33324 -0.73974,-0.67994 -0.14649,-0.34666 -0.19328,-0.70676 -0.14038,-1.08032 z m 23.36059,-4.39941 -1.28052,-1.08032 c -0.0269,2e-5 -0.10032,-0.10659 -0.22033,-0.31983 -0.12006,-0.21319 -0.25332,-0.45306 -0.39978,-0.7196 -0.14651,-0.2665 -0.27977,-0.51328 -0.39978,-0.74036 -0.12006,-0.22702 -0.18008,-0.35357 -0.18006,-0.37964 l 0,-0.15991 c -0.0269,-0.0268 -0.0802,-0.0871 -0.15991,-0.18066 -0.0798,-0.0936 -0.1465,-0.19366 -0.20019,-0.3003 -0.13349,0.0537 -0.21324,0.0672 -0.23926,0.0403 l -0.0806,0 c -0.0269,2e-5 -0.0668,-0.0264 -0.11963,-0.0794 -0.21323,-0.10658 -0.36664,-0.27992 -0.4602,-0.52002 -0.0936,-0.24004 -0.11355,-0.46669 -0.0598,-0.67993 l 0,-0.0403 0.0403,-0.0403 0,-0.0403 c -0.0537,-0.0529 -0.16055,-0.0594 -0.32044,-0.0195 -0.15993,0.0399 -0.30662,0.02 -0.44006,-0.0598 -0.24009,3e-5 -0.41343,-0.13343 -0.52002,-0.40039 -0.0537,-0.0797 -0.13389,-0.15968 -0.24048,-0.23986 -0.10663,-0.0801 -0.21995,-0.16681 -0.33997,-0.26001 -0.12005,-0.0932 -0.21323,-0.19976 -0.27954,-0.31983 -0.0663,-0.12001 -0.073,-0.26018 -0.0201,-0.42053 -0.0269,-0.026 -0.0535,-0.0457 -0.0799,-0.0592 -0.0265,-0.0134 -0.0531,-0.047 -0.08,-0.1007 l -0.0403,0 0,-0.0403 c -0.0269,3e-5 -0.0535,-0.0132 -0.08,-0.0397 -0.0265,-0.0264 -0.0397,-0.0396 -0.0397,-0.0397 -0.0269,3e-5 -0.0403,-0.0134 -0.0403,-0.0403 -0.0529,3e-5 -0.0794,-0.0134 -0.0793,-0.0403 -0.24009,-0.21318 -0.52024,-0.33973 -0.84046,-0.37964 -0.32024,-0.0398 -0.62684,-0.0866 -0.9198,-0.14038 -0.26694,-0.0797 -0.53366,-0.10617 -0.80017,-0.0793 -0.26653,0.0269 -0.52654,0.0603 -0.78003,0.10009 -0.25351,0.0399 -0.5068,0.0464 -0.75988,0.0195 -0.25311,-0.0268 -0.49969,-0.13344 -0.73975,-0.31983 -0.13348,3e-5 -0.24008,0.0932 -0.31982,0.27954 l -0.12085,0 c -0.18638,0.1335 -0.37965,0.20694 -0.57984,0.22034 -0.2002,0.0135 -0.38005,-0.0864 -0.53955,-0.29968 l -0.12085,-0.24048 c -0.0529,-0.0268 -0.0993,-0.0468 -0.13916,-0.0598 -0.0399,-0.013 -0.0598,-0.0195 -0.0598,-0.0195 l 0,-0.12085 c -0.13348,-0.10657 -0.30031,-0.17982 -0.50049,-0.21972 -0.20021,-0.0399 -0.40691,-0.0866 -0.62012,-0.14038 l -0.11963,0.24047 c -0.29379,0.66654 -0.75399,1.05309 -1.38061,1.15967 -0.62664,0.10664 -1.2199,0.0269 -1.77979,-0.23926 l -0.20019,0.2002 c -0.026,0.0529 -0.0326,0.10603 -0.0195,0.1593 0.013,0.0533 0.0195,0.10684 0.0195,0.16052 -1e-5,0.0269 0.007,0.0468 0.0201,0.0598 0.0134,0.0131 0.0201,0.0196 0.0201,0.0195 -1e-5,3e-5 -0.007,0.007 -0.0201,0.0201 -0.0134,0.0135 -0.0202,0.0336 -0.0201,0.0604 0.0268,0.0798 0.0403,0.22626 0.0403,0.43945 -1e-5,0.10664 -0.0265,0.2401 -0.0793,0.40039 0.1066,0.0529 0.21321,0.12617 0.31982,0.21973 0.1066,0.0936 0.15991,0.16685 0.15991,0.21972 0,0.16035 -0.0802,0.24051 -0.24048,0.24048 -0.0529,0.34671 -0.23967,0.57335 -0.5603,0.67993 -1e-5,0.0537 0.007,0.0938 0.0201,0.12024 0.0134,0.0265 0.0201,0.0531 0.0201,0.08 0,0.10663 -0.0667,0.15994 -0.20019,0.15991 -0.0956,0.45065 -0.7942,0.48407 -0.91919,0.56025 -0.0537,3e-5 -0.10051,0.007 -0.14038,0.0195 -0.0399,0.013 -0.0867,0.0196 -0.14038,0.0195 l -0.15991,0.16113 c -0.10662,0.21324 -0.24659,0.39309 -0.41993,0.53955 -0.17334,0.14651 -0.33976,0.28648 -0.49926,0.41992 0.1066,0.42646 0.19978,0.71983 0.27954,0.88013 l 0.0793,0.0793 0,0.0403 c 0.0537,0.10663 0.16072,0.24009 0.32105,0.40039 0.0529,0.0798 0.0659,0.21324 0.0391,0.40039 l -0.11963,0.31982 c -0.26693,0.13349 -0.46041,0.31354 -0.58044,0.54016 -0.12004,0.22667 -0.24639,0.4466 -0.37903,0.65979 -0.0537,0.15953 -0.12045,0.26614 -0.2002,0.31983 -0.18717,0.31984 -0.44067,0.53306 -0.7605,0.63965 -0.1595,2e-5 -0.25268,0.0134 -0.27954,0.0403 0.0529,0.0798 0.0395,0.15301 -0.0403,0.21973 -0.0798,0.0668 -0.14649,0.12697 -0.20019,0.18066 -0.0529,0.29299 -0.026,0.51963 0.0806,0.67993 0.026,0.13348 -0.0142,0.25352 -0.12085,0.36011 -0.0529,0.0529 -0.0928,0.11273 -0.11963,0.17944 -0.0268,0.0668 -0.0667,0.12697 -0.11963,0.18067 0.0529,-0.0537 0.0661,-0.0539 0.0397,-6.1e-4 -0.0264,0.0533 -0.0397,0.0934 -0.0397,0.12023 0,-0.0268 0.0132,0.006 0.0397,0.0995 0.0264,0.0932 0.0531,0.16665 0.0799,0.22034 0.10661,0.13348 0.15991,0.26694 0.15992,0.40039 0.40038,0.31984 0.64046,0.7064 0.72021,1.15967 0.0268,0.0269 0.0535,0.0535 0.08,0.0799 0.0264,0.0265 0.0531,0.0666 0.0799,0.12024 l 0,0.0793 0,0.0403 0.0403,0 0,0.24048 c -0.0537,0.13267 -0.11394,0.27244 -0.18067,0.41931 -0.0667,0.14691 -0.13997,0.28709 -0.21973,0.42053 0.0798,0.29299 0.0197,0.53286 -0.18005,0.71961 -0.19979,0.18678 -0.36641,0.36032 -0.49988,0.52063 0,0.0261 0.007,0.0458 0.0201,0.0592 0.0134,0.0134 0.0202,0.0202 0.0202,0.0201 0.0529,0.16034 0.0527,0.30051 -6.1e-4,0.42054 -0.0533,0.12005 -0.13327,0.24639 -0.23987,0.37902 0,0.0269 -0.0265,0.12046 -0.0794,0.28077 0.0798,0.0269 0.15951,0.0802 0.23926,0.15991 l 0,0.40039 0,0.0391 0.0403,0 c 0.0537,-0.0797 0.16032,-0.19977 0.31983,-0.36011 -0.0269,0.0269 -0.0403,0.0936 -0.0403,0.2002 0,0.13348 0.0134,0.21364 0.0403,0.24048 0,0.0269 0.0134,0.0403 0.0403,0.0403 0.0797,0.0261 0.25309,0.0391 0.52002,0.0391 0.0268,-0.026 0.0802,-0.0391 0.15991,-0.0391 0.0798,1e-5 0.13306,0.013 0.15991,0.0391 0.29378,2e-5 0.48055,-0.013 0.56031,-0.0391 0.21321,1e-5 0.34647,0.0932 0.39978,0.27954 0.0533,0.18637 0.0132,0.33327 -0.12024,0.44068 l 0,0.0793 c -0.026,0.31984 -0.0991,0.62644 -0.21912,0.9198 -0.12004,0.29339 -0.24679,0.58697 -0.38025,0.88074 -0.18717,0.13266 -0.31392,0.29237 -0.38025,0.47913 -0.0663,0.18677 -0.12634,0.38676 -0.18005,0.59997 -0.0537,0.0537 -0.0936,0.0806 -0.11963,0.0806 l 0.15991,0 0.15992,0.0793 0.0793,0 c 0,-0.026 -0.0132,-0.0657 -0.0397,-0.11902 -0.0264,-0.0533 -0.0397,-0.0934 -0.0397,-0.12024 -1e-5,-0.0268 0.0132,-0.047 0.0397,-0.0604 0.0264,-0.0134 0.0397,-0.0201 0.0397,-0.0201 l 0.0403,0 c 0.0537,1e-5 0.10722,0.08 0.16053,0.23987 0.0533,0.15992 0.08,0.26673 0.08,0.32043 l 0,0.11963 -0.12085,0.12085 c 0.0537,0.0529 0.0873,0.0928 0.10071,0.11963 0.0134,0.0269 0.0336,0.0533 0.0604,0.0793 l 0.0793,0 c 0.0537,1e-5 0.0938,-0.006 0.12024,-0.0195 0.0264,-0.013 0.0531,-0.0195 0.08,-0.0195 0.1066,-0.34667 0.29317,-0.54015 0.55969,-0.58044 0.26652,-0.0403 0.50638,0.0865 0.7196,0.38025 0.16032,0.15951 0.24048,0.23926 0.24048,0.23925 l 0,0.0806 c 0.10661,0.10662 0.19979,0.15992 0.27954,0.15991 0.0268,1e-5 0.047,-0.007 0.0604,-0.0201 0.0134,-0.0134 0.0201,-0.0201 0.0201,-0.0201 l 0.11963,0 c 0.16031,-0.1595 0.36051,-0.22603 0.60058,-0.19959 0.24007,0.0265 0.41341,0.13327 0.52002,0.32044 0.0268,0.18637 0.13346,0.34628 0.31983,0.47974 l 0.11963,-0.11963 0.20019,0 c 0,0.026 0.007,0.0525 0.0201,0.0793 0.0134,0.0269 0.0201,0.0537 0.0202,0.0806 l 0.0793,0 c 0.0537,-0.13346 0.0739,-0.26692 0.0604,-0.40039 -0.0134,-0.13346 0.0865,-0.24007 0.29968,-0.31983 -1e-5,0.0529 0.0134,0.0861 0.0403,0.0995 0.0268,0.0134 0.0537,0.047 0.0806,0.10071 0.0797,-0.1066 0.15299,-0.2067 0.21973,-0.30029 0.0667,-0.0936 0.13996,-0.18025 0.21972,-0.26001 0.0268,-0.16031 0.14689,-0.24047 0.36011,-0.24048 l 0.0403,0 c 0.18635,1e-5 0.3129,0.08 0.37964,0.23987 0.0667,0.15992 0.0334,0.3066 -0.1001,0.44006 -0.0529,0.0537 -0.0995,0.11394 -0.13977,0.18066 -0.0403,0.0667 -0.0869,0.12656 -0.13977,0.17945 0.18635,0.18718 0.25309,0.42725 0.2002,0.72021 l 0.0391,0 c -1e-5,1e-5 0.0134,0.007 0.0403,0.0201 0.0268,0.0134 0.0537,0.0202 0.0806,0.0202 0.0529,-0.0269 0.11942,-0.0535 0.19958,-0.08 0.0802,-0.0264 0.17354,-0.0531 0.28016,-0.08 -0.16033,-0.0537 -0.30722,-0.21361 -0.44068,-0.47973 -0.18637,-0.21403 -0.18616,-0.40771 6.1e-4,-0.58106 0.18676,-0.17333 0.37333,-0.16641 0.5597,0.0208 -0.0269,-0.0537 -0.0468,-0.0938 -0.0598,-0.12024 -0.013,-0.0264 -0.0195,-0.0397 -0.0195,-0.0397 -0.0806,-0.18716 -0.0608,-0.34077 0.0592,-0.46081 0.12003,-0.12003 0.27363,-0.13977 0.46082,-0.0592 0.18635,0.0529 0.33283,0.15952 0.43945,0.31983 l 0.24048,0 c 0.026,-0.0268 0.0525,-0.0535 0.0794,-0.08 0.0268,-0.0264 0.0671,-0.0665 0.12085,-0.12024 0.0529,-0.0268 0.0993,-0.0535 0.13916,-0.0799 0.0399,-0.0265 0.0867,-0.0531 0.14038,-0.08 -0.21323,-0.0268 -0.33327,-0.14017 -0.36011,-0.33997 -0.0269,-0.19978 0.0399,-0.33995 0.20019,-0.42053 l -0.28076,0 -0.0793,-0.0793 c -0.0269,0.18637 -0.13348,0.27955 -0.31983,0.27954 -1e-5,-0.0268 0.007,-0.0669 0.0201,-0.12024 0.0134,-0.0533 0.0201,-0.093 0.0202,-0.11902 -0.18719,-0.0537 -0.294,-0.17394 -0.32044,-0.36072 -0.0265,-0.18676 0.0669,-0.32002 0.28015,-0.39978 -0.0269,1e-5 0.0399,-0.0268 0.2002,-0.0806 l 0.11963,-0.11962 c 0.0268,-0.0268 0.0667,-0.0403 0.11963,-0.0403 l 0.20019,0 0.27954,0 c 0.32063,1e-5 0.52082,0.0134 0.60059,0.0403 0.0268,1e-5 0.0468,-0.007 0.0598,-0.0202 0.013,-0.0134 0.0329,-0.0201 0.0598,-0.0201 l 0.12085,0.12085 0.35888,0.11963 0,0.0403 0.16114,0 c 0.10659,1e-5 0.1599,0.0667 0.15991,0.2002 0.15949,0.0529 0.27953,0.0794 0.36011,0.0793 l 0.0391,-0.0403 c 0.0537,-0.0797 0.12043,-0.13956 0.20019,-0.17944 0.0797,-0.0399 0.14648,-0.10009 0.2002,-0.18067 0.0797,-0.15949 0.19977,-0.23924 0.36011,-0.23925 0.15949,1e-5 0.27952,0.0667 0.3601,0.20019 0.13345,0.0529 0.20019,0.14609 0.2002,0.27954 -1e-5,0.42644 -0.24009,0.63966 -0.72022,0.63965 l 0,0.0403 c -1e-5,0.21323 -0.0267,0.43316 -0.0799,0.65979 -0.0533,0.22666 -0.10683,0.44659 -0.16052,0.65979 l 0,0.0806 c 0.0537,-0.16031 0.107,-0.28035 0.15991,-0.36011 l 0,-0.11963 0.0806,-0.0806 0.11963,0 c 0.18635,-0.13346 0.38634,-0.26 0.59998,-0.37964 0.21361,-0.11962 0.4136,-0.25959 0.59997,-0.41992 -1e-5,-0.0797 0.0268,-0.11962 0.0806,-0.11963 0.0529,-0.0537 0.0793,-0.094 0.0794,-0.12085 -0.0798,-0.13346 -0.093,-0.28014 -0.0397,-0.44006 0.0533,-0.15991 0.18655,-0.23986 0.39978,-0.23987 l 0.0806,0 c 0.2661,1e-5 0.39915,0.13347 0.39917,0.40039 l 0,0.40039 c -0.0798,0.31983 -0.21282,0.54648 -0.39917,0.67993 l 0,0.0391 c 0.2132,0.16033 0.25308,0.36053 0.11963,0.60059 -0.0269,0.0269 -0.0403,0.0533 -0.0403,0.0793 -2e-5,0.13348 -0.0667,0.20021 -0.2002,0.2002 l 0.2002,0.20019 c 0.29376,-0.0529 0.56069,-0.0395 0.80078,0.0403 0.18634,0.0269 0.38613,-0.0798 0.59936,-0.31983 -1e-5,-0.1066 0.0667,-0.18676 0.2002,-0.24047 0.13344,-0.13346 0.27993,-0.22664 0.43945,-0.27955 0.10659,-0.1066 0.25348,-0.0802 0.44068,0.0794 l 0,0.0403 0.0403,0 c 0.0529,-0.0529 0.10618,-0.0793 0.15991,-0.0793 0.0797,-0.0806 0.17291,-0.14078 0.27954,-0.18067 0.10659,-0.0399 0.2132,-0.0867 0.31983,-0.14038 0.24005,1e-5 0.38694,-0.013 0.44067,-0.0391 0.0797,-0.0806 0.14606,-0.12084 0.19897,-0.12085 l 0.0806,0 c 0.1603,-0.0797 0.36049,-0.19978 0.60059,-0.36011 0.15948,-0.0797 0.30597,-0.0529 0.43945,0.0806 0.0797,0.0537 0.13975,0.12716 0.18005,0.22034 0.0403,0.0932 0.0869,0.20651 0.13977,0.33996 l 0,0.0391 c -2e-5,0.10743 -0.0932,0.16115 -0.27954,0.16114 -2e-5,0.0529 -0.0135,0.0794 -0.0403,0.0793 0.18634,1e-5 0.34625,0.0667 0.47974,0.2002 l 0.0403,0 c -2e-5,-0.0537 0.0268,-0.0806 0.0806,-0.0806 -3e-5,1e-5 0.0199,-0.0132 0.0598,-0.0397 0.0399,-0.0264 0.0732,-0.0397 0.1001,-0.0397 l 0,-0.24048 c -2e-5,1e-5 0.13303,-0.0264 0.39917,-0.0794 0.0268,-0.18716 0.16029,-0.28075 0.40039,-0.28076 l 0.11963,0 0.0806,-0.0794 -0.0806,-0.0806 c -3e-5,1e-5 -0.007,-0.0199 -0.0201,-0.0598 -0.0135,-0.0399 -0.0202,-0.0732 -0.0202,-0.10009 l 0,-0.15992 c -2e-5,-0.0268 0.0268,-0.0667 0.0806,-0.11962 0.0268,-0.0797 0.10699,-0.14648 0.24048,-0.2002 0.15948,-0.0268 0.29254,-0.12003 0.39917,-0.27954 -0.0798,-0.24006 -0.0397,-0.45348 0.12024,-0.64026 0.15989,-0.18676 0.32,-0.3603 0.48034,-0.52063 -0.18719,-0.0797 -0.31394,-0.213 -0.38024,-0.39978 -0.0663,-0.18676 -0.0796,-0.38003 -0.0397,-0.57983 0.0399,-0.19978 0.11981,-0.39306 0.23987,-0.57984 0.12001,-0.18675 0.27321,-0.33344 0.4596,-0.44006 -0.10664,-0.37352 -0.21324,-0.74685 -0.31983,-1.12 -0.10663,-0.37311 -0.13308,-0.74644 -0.0793,-1.11999 -3e-5,-0.18635 -0.0403,-0.34626 -0.12085,-0.47974 -3e-5,2e-5 0.007,-0.0134 0.0201,-0.0403 0.0134,-0.0268 0.0335,-0.0667 0.0604,-0.11963 -0.26695,-0.10659 -0.42035,-0.27322 -0.4602,-0.49988 -0.0399,-0.22663 -0.02,-0.47341 0.0598,-0.74035 l -0.0403,0 -0.0391,0.0403 -0.0403,-0.0403 0.15992,-0.15992 c 0.13344,-0.29376 0.27992,-0.50738 0.43945,-0.64087 l 0,-0.15991 c 0.0268,2e-5 0.0669,-0.0132 0.12024,-0.0397 0.0533,-0.0264 0.0934,-0.0397 0.12024,-0.0397 l 0,0.0403 c -3e-5,-0.0268 0.0134,-0.0403 0.0403,-0.0403 0.21319,-0.10659 0.34645,-0.24657 0.39978,-0.41993 0.0533,-0.17332 0.0934,-0.36659 0.12024,-0.57983 -0.13349,-0.24005 -0.16685,-0.50006 -0.1001,-0.78003 0.0667,-0.27993 0.20668,-0.51349 0.41992,-0.70068 -2e-5,2e-5 -0.007,-0.0132 -0.0201,-0.0397 -0.0135,-0.0264 -0.0336,-0.0665 -0.0604,-0.12023 -0.42646,-0.42642 -0.62625,-0.91958 -0.59937,-1.4795 -2e-5,-0.0537 0.006,-0.0872 0.0195,-0.1007 0.013,-0.0134 0.006,-0.0466 -0.0195,-0.0995 z m -18.68042,13.64013 c 0.24007,0.13348 0.35339,0.26674 0.33997,0.39979 -0.0134,0.13306 -0.0802,0.23295 -0.2002,0.29968 -0.12004,0.0667 -0.26001,0.0869 -0.41992,0.0604 -0.15992,-0.0264 -0.27975,-0.13325 -0.3595,-0.32043 l 0.11963,0 c -0.13347,-0.0529 -0.22014,-0.13264 -0.26001,-0.23926 -0.0399,-0.1066 -0.0531,-0.2067 -0.0397,-0.30029 0.0134,-0.0936 0.06,-0.16703 0.13977,-0.22034 0.0798,-0.0533 0.18636,-0.0531 0.31982,6.1e-4 0.0797,0.0529 0.15971,0.0928 0.23987,0.11963 0.0802,0.0269 0.13366,0.0936 0.16053,0.20019 z m 9.68018,1.35987 c 0.0529,0.0269 0.0928,0.0468 0.11963,0.0598 0.0268,0.013 0.0403,0.0195 0.0403,0.0195 0.0537,1e-5 0.0936,-0.013 0.11963,-0.0391 -0.0529,-0.0537 -0.0794,-0.094 -0.0794,-0.12085 z m -0.47974,0.24048 c -0.0537,0 -0.0806,0.0399 -0.0806,0.11963 -2e-5,0.0529 0.0268,0.0794 0.0806,0.0793 l 0.0391,0 c 0.0537,-0.13264 0.0407,-0.19897 -0.0391,-0.19893 z m -1.56006,-1.16089 c -0.0269,-0.0268 -0.0403,0.0134 -0.0403,0.12085 -10e-6,0.10661 0.0134,0.14649 0.0403,0.11963 0.0529,-0.0537 0.0793,-0.0936 0.0794,-0.11963 -1e-5,-0.0268 -0.0265,-0.0671 -0.0794,-0.12085 z m -3.40088,7.03979 c 0.0537,0 0.0806,0.0269 0.0806,0.0806 -1e-5,0.0529 -0.0269,0.0794 -0.0806,0.0794 -0.0529,0 -0.0793,-0.0265 -0.0793,-0.0794 -1e-5,-0.0537 0.0264,-0.0806 0.0793,-0.0806 z m 4.76075,-5.59936 c -0.0537,0 -0.0806,0.0399 -0.0806,0.11963 0.0537,-0.0529 0.094,-0.0793 0.12085,-0.0794 -1e-5,-0.0268 -0.0134,-0.0403 -0.0403,-0.0403 z m 10.31982,-3.43994 0,0.0793 c -0.0269,-0.026 -0.0535,-0.0458 -0.08,-0.0592 -0.0265,-0.0134 -0.0531,-0.0336 -0.08,-0.0604 0.0268,10e-6 0.0535,0.007 0.08,0.0201 0.0264,0.0134 0.0531,0.0202 0.08,0.0201 z m -1.92017,2.08007 -0.0403,0 c -2e-5,0.0269 0.007,0.0468 0.0201,0.0598 0.0134,0.013 0.0201,0.0195 0.0201,0.0195 0.0537,-0.0529 0.0537,-0.0793 0,-0.0794 z m -21.31958,-0.83984 c -0.0537,10e-6 -0.0806,0.0265 -0.0806,0.0793 0.0268,1e-5 0.047,-0.007 0.0604,-0.0202 0.0134,-0.0134 0.0201,-0.0201 0.0201,-0.0201 z m 21.51978,1.11939 c -2e-5,0 -0.007,0.007 -0.0201,0.0201 -0.0135,0.0134 -0.0202,0.0336 -0.0201,0.0604 l 0.0403,0 c -2e-5,-0.0269 0.0134,-0.0403 0.0403,-0.0403 z m -8.1604,0.80078 0,0.0391 c 0.0268,1e-5 0.0537,-0.013 0.0806,-0.0391 z"
         id="pdm_pt_113"
         style="fill:param(fill) #FFF;fill-opacity:1"
         inkscape:connector-curvature="0"
         inkscape:label="113" />
    </g>
  </g>
</svg>
