<?xml version="1.0" encoding="UTF-8" standalone="no"?>
<!-- 
116.svg
copyright: (C) 2014 Grupo Utilizadores QGIS Portugal
email: qgis.portugal@gmail.com
Este ficheiro é software livre; você pode redistribuí-lo
e/ou modificá-lo nos termos da Licença Pública Geral GNU
versão 2 (GPL2) como publicada pela Fundação do
Software Livre (FSF).
-->
<!-- Created with Inkscape (http://www.inkscape.org/) -->

<svg
   xmlns:dc="http://purl.org/dc/elements/1.1/"
   xmlns:cc="http://creativecommons.org/ns#"
   xmlns:rdf="http://www.w3.org/1999/02/22-rdf-syntax-ns#"
   xmlns:svg="http://www.w3.org/2000/svg"
   xmlns="http://www.w3.org/2000/svg"
   xmlns:sodipodi="http://sodipodi.sourceforge.net/DTD/sodipodi-0.dtd"
   xmlns:inkscape="http://www.inkscape.org/namespaces/inkscape"
   version="1.2"
   width="7.5000005"
   height="7.5"
   id="svg2"
   inkscape:version="0.48.4 r9939"
   sodipodi:docname="116.svg">
  <sodipodi:namedview
     pagecolor="#ffffff"
     bordercolor="#666666"
     borderopacity="1"
     objecttolerance="10"
     gridtolerance="10"
     guidetolerance="10"
     inkscape:pageopacity="0"
     inkscape:pageshadow="2"
     inkscape:window-width="1366"
     inkscape:window-height="716"
     id="namedview3274"
     showgrid="false"
     inkscape:zoom="66.533333"
     inkscape:cx="3.7500002"
     inkscape:cy="3.75"
     inkscape:window-x="-8"
     inkscape:window-y="-8"
     inkscape:window-maximized="1"
     inkscape:current-layer="svg2" />
  <defs
     id="defs4" />
  <metadata
     id="metadata7">
    <rdf:RDF>
      <cc:Work
         rdf:about="">
        <dc:format>image/svg+xml</dc:format>
        <dc:type />
        <dc:title></dc:title>
      </cc:Work>
    </rdf:RDF>
  </metadata>
  <text
     id="text4123"
     xml:space="default">
    <tspan
       sodipodi:role="line"
       id="tspan4091"
       x="0.69120663"
       y="6.5207906" />
  </text>
  <g
     id="116"
     style="fill:#000000">
    <path
       d="m 2.6843267,5.9860498 c -0.00954,0.00477 -0.022571,0.01542 -0.039107,0.031957 -0.016541,0.01654 -0.027193,0.029539 -0.031957,0.038998 -0.00477,0.00946 -0.015421,0.03315 -0.031957,0.071064 -0.016541,0.037916 -0.027193,0.059221 -0.031957,0.063914 -0.00477,0.0047 -0.011882,0.00823 -0.021341,0.010616 -0.00946,0.00238 -0.016577,0.00358 -0.021341,0.00357 L 2.471352,6.1990245 C 2.4665833,6.1848708 2.4570865,6.161219 2.4428615,6.1280691 2.4286321,6.0949218 2.414441,6.059426 2.4002882,6.0215817 2.3861311,5.9837403 2.37194,5.9482445 2.3577149,5.9150944 2.3434856,5.8819473 2.3339888,5.8582955 2.3292244,5.8441389 L 2.2583773,5.5601004 c -0.00953,-0.023686 -0.02257,-0.06272 -0.039107,-0.1171036 -0.01654,-0.054379 -0.027192,-0.086336 -0.031957,-0.095871 l -0.071064,-0.071064 c -0.00939,-0.00939 -0.02239,-0.031847 -0.038998,-0.067381 -0.016612,-0.03553 -0.027229,-0.05799 -0.031849,-0.067381 -0.00477,0.014157 -0.010726,0.03427 -0.017874,0.060339 -0.00715,0.026073 -0.014265,0.0533 -0.021341,0.08168 -0.00708,0.028384 -0.012965,0.055575 -0.017658,0.081572 -0.0047,0.026001 -0.00943,0.043767 -0.014191,0.053298 -0.00477,0.00477 -0.017804,0.016612 -0.039107,0.035532 -0.021306,0.018923 -0.031959,0.030695 -0.031957,0.035315 l 0,0.2131914 c -1.7e-6,0.00462 -0.010654,0.016395 -0.031957,0.035315 -0.021306,0.018923 -0.034342,0.030767 -0.039107,0.035532 -0.00939,0.014301 -0.022353,0.048641 -0.03889,0.1030208 -0.01654,0.054383 -0.027192,0.091034 -0.031957,0.1099539 -0.00953,-0.00476 -0.02257,-0.015417 -0.039107,-0.031957 -0.01654,-0.016537 -0.027192,-0.0295 -0.031957,-0.03889 -0.00939,-0.014298 -0.02712,-0.047483 -0.05319,-0.099554 C 1.6110382,5.76358 1.5933084,5.7280842 1.5839212,5.709161 l 0,0.4473986 c -0.00953,1.3e-6 -0.052144,-0.00119 -0.1278281,-0.00357 -0.075687,-0.00238 -0.1691747,-0.00596 -0.2804637,-0.010725 -0.1112907,-0.00477 -0.20001202,-0.00946 -0.26616418,-0.014083 -0.0143001,1.3e-6 -0.0391796,-0.0095 -0.0746386,-0.028491 -0.0354602,-0.018992 -0.0579565,-0.033183 -0.0674889,-0.042573 l 0.14212757,-0.1419109 -0.0214491,0 c -0.0283106,1.5e-6 -0.0649618,-0.0083 -0.10995388,-0.024916 -0.0449931,-0.016609 -0.0698365,-0.028453 -0.0745303,-0.035532 -0.004695,-0.00708 -0.008233,-0.02365 -0.0106162,-0.049723 -0.002384,-0.026069 -0.003575,-0.043799 -0.003575,-0.05319 -4.4e-7,-0.014153 0.001191,-0.036613 0.003575,-0.067381 0.002383,-0.030764 0.003574,-0.048529 0.003575,-0.053298 l 0.0708471,-0.071064 c -5.1e-7,-0.00476 -0.003539,-0.0178 -0.0106162,-0.039107 -0.007078,-0.021303 -0.0141555,-0.043763 -0.0212325,-0.067381 -0.007078,-0.023614 -0.0153471,-0.046074 -0.0248073,-0.067381 -0.009461,-0.021303 -0.0141915,-0.034338 -0.0141911,-0.039107 l 0,-0.1419109 c 0.023543,-0.00476 0.0708105,-0.015417 0.14180259,-0.031957 0.0709909,-0.016536 0.11833062,-0.029571 0.14201925,-0.039107 0.009532,-0.00476 0.0225679,-0.015416 0.0391068,-0.031957 0.016537,-0.016536 0.02719,-0.029571 0.031957,-0.039107 l 0,-0.014083 c -8e-7,-0.023686 -0.00473,-0.058026 -0.014191,-0.1030208 -0.00946,-0.04499 -0.014192,-0.076947 -0.014191,-0.095871 l -0.18459291,0 0.0710638,-0.1419109 -0.0355319,0 -0.31957039,0.071064 -0.0708471,0 c 0.004622,-0.00953 0.015238,-0.022566 0.0318487,-0.039107 0.0166102,-0.016535 0.0296096,-0.027188 0.0389984,-0.031957 0.0142991,-0.00953 0.037987,-0.024913 0.0710638,-0.046148 0.033076,-0.02123 0.0685718,-0.042498 0.10648735,-0.063806 0.0379146,-0.021302 0.0734104,-0.041415 0.10648736,-0.060339 0.0330758,-0.018919 0.0567637,-0.033146 0.0710638,-0.042682 C 0.70947307,4.3832152 0.5047487,4.2798693 0.30239024,4.1721904 c 0.0166104,-0.016607 0.029646,-0.027259 0.0391068,-0.031957 0.009461,-0.00469 0.0331124,-0.015343 0.0709555,-0.031957 0.0378427,-0.016607 0.0591474,-0.027259 0.0639141,-0.031957 0.004766,-0.00469 0.008305,-0.011768 0.0106162,-0.021232 0.002311,-0.00946 0.003466,-0.016571 0.003467,-0.021341 -2.3e-7,-0.00476 -0.002311,-0.016607 -0.006933,-0.035532 -0.0142996,-0.00939 -0.0486399,-0.02354 -0.10302083,-0.042465 -0.0543812,-0.018918 -0.0910325,-0.028379 -0.10995388,-0.028382 0.009388,-0.00476 0.0223518,-0.015451 0.0388901,-0.032065 0.0165381,-0.016607 0.0271905,-0.029606 0.031957,-0.038998 l 0,-0.1421275 c 0.009533,-0.014151 0.0320291,-0.038959 0.0674889,-0.074422 0.0354595,-0.035456 0.060339,-0.057952 0.0746386,-0.067489 -2.3e-7,0.00954 0.00946,0.033225 0.0283822,0.071064 0.0189212,0.037847 0.030729,0.059115 0.0354236,0.063806 0.004694,0.0047 0.0117714,0.00824 0.0212325,0.010616 0.00946,0.00239 0.016574,0.00358 0.0213408,0.00357 0.004766,3.7e-6 0.0166101,-0.00238 0.0355319,-0.00715 0.009388,-0.00938 0.0271179,-0.030653 0.0531895,-0.063806 0.0260707,-0.033145 0.0438005,-0.056797 0.0531895,-0.070956 l 0,0.3479526 0.13497787,0 C 0.86678409,3.9083005 0.8620537,3.8668465 0.8525936,3.8030009 0.8431326,3.7391629 0.8384019,3.6906314 0.8384025,3.6574068 l 0,-0.014083 c -5.9e-7,-0.00953 0.00946,-0.022565 0.0283822,-0.039107 0.0189208,-0.016534 0.033148,-0.027187 0.0426816,-0.031957 l 0.0708471,0 c 0.004766,0.00477 0.0213401,0.014267 0.049723,0.028491 0.028381,0.014231 0.059147,0.029614 0.092296,0.046148 0.033148,0.016542 0.062758,0.031889 0.08883,0.04604 0.02607,0.014159 0.0438,0.021236 0.05319,0.021232 l 0.1419109,0 0.2129747,0.071064 0.1421276,0 C 1.7424411,3.7710877 1.7092925,3.7474359 1.6619181,3.7142835 1.6145409,3.6811386 1.5636624,3.6456429 1.5092826,3.6077961 1.4549003,3.5699571 1.4052134,3.5344614 1.360222,3.5013088 1.315228,3.4681638 1.283271,3.4445128 1.264351,3.4303538 1.254961,3.4255938 1.241962,3.4149388 1.225353,3.3983968 1.208742,3.3818628 1.198053,3.3688268 1.193288,3.3592898 l 0.2768888,0 c -0.014156,-0.00938 -0.037808,-0.031845 -0.070956,-0.067381 -0.03315,-0.035528 -0.054418,-0.060371 -0.063806,-0.07453 -0.00477,-0.00953 -0.00953,-0.024948 -0.014299,-0.046257 -0.00477,-0.0213 -0.00715,-0.034264 -0.00715,-0.03889 0.00477,4.3e-6 0.020184,0.00116 0.046257,0.00347 0.02607,0.00232 0.041417,0.00585 0.04604,0.010616 l 0.362252,0.2129747 c 0.00939,4.1e-6 0.021195,-0.00234 0.035424,-0.00704 0.014226,-0.00469 0.02365,-0.00704 0.028274,-0.00704 l 0,-0.1278282 c -0.014157,-0.00476 -0.037808,-0.017798 -0.070955,-0.039107 -0.03315,-0.0213 -0.068646,-0.042605 -0.1064873,-0.063914 -0.037844,-0.0213 -0.07334,-0.042605 -0.1064874,-0.063914 -0.03315,-0.0213 -0.056802,-0.036647 -0.070955,-0.04604 -0.00939,-0.00476 -0.022389,-0.015414 -0.038998,-0.031957 -0.016612,-0.016534 -0.0273,-0.029569 -0.032065,-0.039107 l 0.1421275,0 c 0.01892,0.00477 0.055608,0.015423 0.1100623,0.031957 0.054452,0.016543 0.088756,0.029578 0.1029125,0.039107 l 0.00715,-0.035532 C 1.7685123,2.96411 1.766129,2.9522661 1.7613641,2.9333401 1.6666109,2.8387375 1.6180796,2.7867035 1.61577,2.7772381 1.61346,2.7677781 1.6123,2.7606681 1.6123,2.7558971 c -1.3e-6,-0.00476 0.00231,-0.016606 0.00693,-0.035532 0.00953,-0.018917 0.033219,-0.044952 0.071064,-0.078105 0.037841,-0.033144 0.061529,-0.054412 0.071064,-0.063806 0.00476,4.9e-6 0.016609,-0.00238 0.035532,-0.00715 0.01892,-0.00476 0.033075,-0.00714 0.042465,-0.00715 0.00953,4.9e-6 0.030836,0.00477 0.063914,0.014299 0.00476,0.00463 0.0095,0.016435 0.014191,0.035424 0.00469,0.018998 0.010614,0.041495 0.017766,0.067489 0.00715,0.026004 0.014262,0.049656 0.021341,0.070955 0.00708,0.021309 0.012998,0.034345 0.017766,0.039107 0.00939,0.00939 0.031847,0.023548 0.067381,0.042465 0.03553,0.018926 0.060374,0.028387 0.07453,0.028382 -0.00939,0.00954 -0.02239,0.033225 -0.038998,0.071064 -0.016612,0.037847 -0.027229,0.061535 -0.031849,0.071064 l 0,0.070847 c 0.00462,-0.014151 0.019967,-0.03188 0.04604,-0.05319 0.026069,-0.0213 0.054488,-0.043797 0.085255,-0.067489 0.030763,-0.023683 0.060337,-0.043797 0.088721,-0.060339 0.02838,-0.016534 0.049649,-0.027186 0.063806,-0.031957 l 0.00715,0 c 0.018919,4.6e-6 0.052032,0.00831 0.099338,0.024916 0.047301,0.016615 0.076875,0.028459 0.088721,0.035532 0.011842,0.00708 0.018955,0.01416 0.021341,0.021232 0.00238,0.00708 0.00357,0.013004 0.00357,0.017766 -2.3e-6,0.00954 -0.00239,0.023765 -0.00715,0.042682 -0.00462,0.00939 -0.017588,0.033045 -0.03889,0.070956 -0.021307,0.037919 -0.031959,0.061571 -0.031957,0.070955 l 0,0.2129747 C 2.466572,3.3734478 2.449999,3.4089438 2.421619,3.4657762 2.393235,3.5226172 2.363661,3.582992 2.332898,3.6469022 2.30213,3.7108202 2.271365,3.7699676 2.240602,3.824345 2.209835,3.87873 2.192069,3.91307 2.187304,3.9273658 l 0,0.070847 C 2.220378,3.9699068 2.249952,3.9356378 2.276025,3.8954086 2.302094,3.8551856 2.328129,3.8149236 2.35413,3.7746218 2.380127,3.7343268 2.408509,3.6999868 2.439277,3.671601 2.47004,3.643223 2.509111,3.629031 2.5564889,3.629028 c -2.3e-6,0.023692 -0.00119,0.073415 -0.00357,0.149169 -0.00239,0.075762 -0.00596,0.1254846 -0.010725,0.1491689 l -0.070847,0.2838219 0,0.1421275 c 0.00939,-0.00953 0.022386,-0.033218 0.038998,-0.071064 0.016608,-0.03784 0.027224,-0.061528 0.031849,-0.071064 0.00953,-0.018918 0.024949,-0.055569 0.046257,-0.1099539 0.021302,-0.054378 0.042607,-0.1123337 0.063914,-0.173868 0.021302,-0.061527 0.041415,-0.1183276 0.060339,-0.1704014 0.018919,-0.052066 0.033074,-0.089945 0.042465,-0.1136371 0.00953,3.8e-6 0.033218,-0.00946 0.071064,-0.028382 0.03784,-0.018918 0.061492,-0.033109 0.070956,-0.042573 0.00946,-0.00946 0.021302,-0.0343 0.035532,-0.07453 0.014225,-0.040222 0.026032,-0.062718 0.035423,-0.067489 0.00476,-0.00476 0.017799,-0.010684 0.039107,-0.017766 0.021302,-0.00707 0.043798,-0.014187 0.067489,-0.021341 0.023685,-0.00715 0.046181,-0.014259 0.067489,-0.021341 0.021302,-0.00707 0.034265,-0.010612 0.03889,-0.010616 0.00953,-0.00476 0.033218,-0.015415 0.071064,-0.031957 0.03784,-0.016534 0.061528,-0.02957 0.071064,-0.039107 l 0,0.042682 c 0.023685,4.2e-6 0.075755,0.00473 0.1562103,0.014191 0.080449,0.00946 0.1395966,0.014195 0.1774429,0.014191 l 0.021232,0 c 0.00476,4.1e-6 0.016607,-0.010648 0.035532,-0.031957 0.018918,-0.0213 0.02957,-0.033144 0.031957,-0.035532 0.00238,-0.00238 0.0083,-0.00473 0.017766,-0.00704 0.00946,-0.00231 0.016571,-0.00346 0.021341,-0.00347 0.00462,4.2e-6 0.016463,0.00232 0.035532,0.00693 0.014151,0.00954 0.038959,0.032033 0.074422,0.067489 0.035456,0.035464 0.055569,0.056768 0.060339,0.063914 0.00476,0.00715 0.00834,0.015459 0.010725,0.024916 0.00238,0.00946 0.00357,0.016578 0.00357,0.021341 -3.7e-6,0.00463 -0.00239,0.016398 -0.00715,0.035315 -0.00954,0.00954 -0.033224,0.023764 -0.071064,0.042682 -0.037846,0.018925 -0.061462,0.028386 -0.070847,0.028382 0.00938,0.00477 0.022348,0.015423 0.03889,0.031957 0.016535,0.016542 0.027187,0.029578 0.031957,0.039107 0.00953,0.018925 0.014296,0.03308 0.0143,0.042465 -0.014303,3.8e-6 -0.051027,0.00358 -0.1101706,0.010725 -0.059151,0.00715 -0.098186,0.013039 -0.1171036,0.017658 -0.00939,0.00477 -0.022391,0.015459 -0.038998,0.032065 -0.016614,0.016614 -0.027302,0.029614 -0.032065,0.038998 0.00476,0.00954 0.015452,0.022572 0.032065,0.039107 0.016607,0.016542 0.029606,0.027194 0.038998,0.031957 0.014152,0.00939 0.048456,0.022392 0.1029125,0.038998 0.05445,0.016614 0.091137,0.027302 0.1100622,0.032065 l -0.1419109,0.070847 c 0.018918,0.00954 0.044953,0.032033 0.078105,0.067489 0.033145,0.035463 0.052067,0.056768 0.056764,0.063914 0.00469,0.00715 0.00823,0.023727 0.010616,0.049723 0.00238,0.026002 0.00357,0.046079 0.00357,0.060231 -3.7e-6,0.014303 -0.0012,0.035643 -0.00357,0.064023 -0.00239,0.028385 -0.00358,0.04496 -0.00357,0.049723 -0.00477,0.018925 -0.015422,0.046115 -0.031957,0.081572 -0.016542,0.035463 -0.027158,0.054384 -0.031849,0.056764 -0.0047,0.00239 -0.018889,0.00477 -0.042573,0.00715 -0.023691,0.00239 -0.042613,0.00358 -0.056764,0.00357 l -0.5113126,-0.078213 -0.106379,0 c 0.00476,0.00954 0.015416,0.022571 0.031957,0.039107 0.016535,0.016541 0.029499,0.027194 0.03889,0.031957 0.00476,0.00477 0.017799,0.013075 0.039107,0.024916 0.021302,0.011847 0.043798,0.026038 0.067489,0.042573 0.023685,0.016541 0.046181,0.031924 0.067489,0.046148 0.021302,0.01423 0.03311,0.022499 0.035424,0.024807 0.00231,0.00231 0.00465,0.0082 0.00704,0.017658 0.00238,0.00946 0.00357,0.016577 0.00357,0.021341 -3.1e-6,0.00477 -0.00239,0.016613 -0.00715,0.035532 -0.00463,0.00477 -0.017588,0.01423 -0.03889,0.028382 -0.021308,0.014158 -0.043804,0.02954 -0.067489,0.046148 -0.023691,0.016613 -0.046187,0.03084 -0.067489,0.042682 -0.021308,0.011847 -0.034343,0.02008 -0.039107,0.024699 -0.00939,0.00477 -0.022355,0.015458 -0.03889,0.032065 -0.016541,0.016613 -0.027193,0.029612 -0.031957,0.038998 0.018919,0.00954 0.05557,0.033223 0.1099539,0.071064 0.054378,0.037845 0.088718,0.061461 0.1030208,0.070847 0.018918,0.014302 0.046109,0.039181 0.081572,0.074639 0.035457,0.035462 0.05557,0.057958 0.060339,0.067489 l 0.071064,0.2838218 c 0.047228,0.047378 0.072035,0.075796 0.074422,0.085255 0.00238,0.00946 0.00357,0.016576 0.00357,0.021341 -3.4e-6,0.00477 -0.00239,0.016612 -0.00715,0.035532 -0.00463,0.00939 -0.015242,0.023581 -0.031849,0.042573 -0.016614,0.018995 -0.027266,0.028492 -0.031957,0.028491 -0.0047,1.7e-6 -0.02008,0.00116 -0.046148,0.00347 -0.026074,0.00231 -0.046187,0.00347 -0.060339,0.00347 -0.014158,1.8e-6 -0.035427,-0.00115 -0.063806,-0.00347 -0.028385,-0.00231 -0.04496,-0.00346 -0.049723,-0.00347 l -0.2129747,-0.071064 -0.071064,0 0.4970132,0.3548856 -0.4259494,0.4259494 c -0.00477,0.00477 -0.034379,-0.011771 -0.08883,-0.049615 -0.054456,-0.037842 -0.095838,-0.068607 -0.124145,-0.092296 -0.014302,-0.00953 -0.039182,-0.03322 -0.074639,-0.071064 -0.035462,-0.037842 -0.057922,-0.061493 -0.067381,-0.070955 -0.00946,-0.00946 -0.022499,-0.033111 -0.039107,-0.070956 -0.016613,-0.037841 -0.027229,-0.061529 -0.031849,-0.071064 z m 3.2585347,1.0507908 c -0.00939,0.00477 -0.022394,0.015419 -0.038998,0.031957 -0.016616,0.016539 -0.027268,0.029538 -0.031957,0.038998 -0.0047,0.00946 -0.015352,0.033113 -0.031957,0.070955 -0.016616,0.037843 -0.027268,0.059148 -0.031957,0.063914 -0.0047,0.00477 -0.011777,0.00834 -0.021232,0.010725 -0.00947,0.00238 -0.01658,0.00357 -0.021341,0.00357 l -0.035532,-0.00715 C 5.7251147,7.2356605 5.715654,7.2120088 5.7015045,7.1788598 5.6873441,7.1457115 5.673153,7.1102158 5.6589312,7.0723725 5.6446986,7.03453 5.6305075,6.9990343 5.6163579,6.9658851 5.6021976,6.932737 5.5927369,6.9090852 5.5879758,6.8949297 L 5.516912,6.6108912 C 5.5075182,6.5872041 5.4945187,6.5481335 5.4779135,6.4936793 5.4612979,6.4392269 5.4506095,6.407306 5.4458482,6.3979165 L 5.375001,6.3268527 C 5.365461,6.3174627 5.352427,6.2950047 5.335894,6.2594717 5.319351,6.2239407 5.308698,6.2014807 5.303937,6.1920907 c -0.00477,0.014156 -0.010694,0.034233 -0.017766,0.060231 -0.00708,0.026 -0.01416,0.053191 -0.021232,0.081572 -0.00708,0.028383 -0.013004,0.05561 -0.017766,0.08168 -0.00477,0.026072 -0.00954,0.043802 -0.014299,0.05319 -0.00463,0.00477 -0.01759,0.016611 -0.03889,0.035532 -0.02131,0.018922 -0.031962,0.030766 -0.031957,0.035532 l 0,0.2129747 C 5.1620221,6.7575724 5.15137,6.7694134 5.13007,6.7883344 5.10876,6.8072564 5.095725,6.8191004 5.090963,6.8238664 5.081423,6.8380224 5.06839,6.8723264 5.051856,6.9267789 5.035313,6.9812329 5.024661,7.0179199 5.019899,7.0368411 5.010509,7.0320711 4.997506,7.0214231 4.980901,7.0048841 4.964286,6.9883461 4.95367,6.9753111 4.949052,6.9657771 4.939512,6.9516221 4.921749,6.9185101 4.895754,6.8664391 4.86975,6.8143701 4.851985,6.7788741 4.842456,6.7599517 l 0,0.4471819 c -0.00939,3e-7 -0.051966,-0.00116 -0.1277198,-0.00347 C 4.6389742,7.2013536 4.545486,7.1978136 4.4342726,7.1930476 4.3230508,7.1882776 4.2342934,7.1835176 4.168,7.1787486 4.153841,7.1787489 4.128998,7.1692886 4.09347,7.1503666 4.057934,7.1314456 4.035474,7.1172906 4.026089,7.1079016 l 0.1419109,-0.1421276 -0.021232,0 c -0.028458,5e-7 -0.065146,-0.00827 -0.1100623,-0.024807 -0.044924,-0.016538 -0.069768,-0.028345 -0.07453,-0.035424 -0.00477,-0.00708 -0.00834,-0.023651 -0.010724,-0.049723 -0.00239,-0.02607 -0.00358,-0.0438 -0.00357,-0.053189 -3.7e-6,-0.014299 0.00119,-0.036831 0.00357,-0.067597 0.00238,-0.030765 0.00357,-0.048458 0.00357,-0.053081 L 4.0260856,6.610889 C 4.0260818,6.606119 4.0225456,6.593088 4.0154696,6.571782 4.0083896,6.550478 4.0012746,6.527982 3.9941286,6.504293 3.9869786,6.480606 3.9786696,6.458146 3.9692126,6.436912 3.9597526,6.415681 3.9550176,6.402681 3.9550216,6.397914 l 0,-0.1421276 c 0.023684,-0.00462 0.071024,-0.015237 0.1420193,-0.031849 0.070988,-0.016609 0.1183273,-0.029609 0.1420192,-0.038998 0.00938,-0.00477 0.022384,-0.015418 0.038998,-0.031957 0.016606,-0.016537 0.027295,-0.029572 0.032065,-0.039107 l 0,-0.014083 c -4e-6,-0.023687 -0.00477,-0.058027 -0.014299,-0.1030208 -0.00954,-0.044991 -0.014303,-0.076948 -0.014299,-0.095871 l -0.1845926,0 0.071064,-0.141911 -0.035532,0 -0.3193537,0.070847 -0.071064,0 c 0.00476,-0.00939 0.015415,-0.022386 0.031957,-0.038998 0.016535,-0.016609 0.02957,-0.027225 0.039107,-0.031849 0.014151,-0.00953 0.037803,-0.02495 0.070955,-0.046256 0.033145,-0.021303 0.068641,-0.042608 0.1064873,-0.063914 0.037839,-0.021303 0.073335,-0.041416 0.1064874,-0.060339 0.033145,-0.01892 0.056796,-0.033074 0.070955,-0.042465 l 0,-0.071064 -0.6389241,-0.2129747 c 0,0 0.015415,-0.022566 0.031957,-0.039107 0.016535,-0.016536 0.029534,-0.027188 0.038998,-0.031957 0.00946,-0.00476 0.033145,-0.015417 0.071064,-0.031957 0.037912,-0.016536 0.059216,-0.027152 0.063914,-0.031849 0.00469,-0.00469 0.00823,-0.011805 0.010616,-0.021341 0.00238,-0.00953 0.00357,-0.016608 0.00357,-0.021232 -3.5e-6,-0.00476 -0.00239,-0.016608 -0.00715,-0.035532 -0.014158,-0.00953 -0.048463,-0.023758 -0.1029125,-0.042682 -0.054457,-0.018919 -0.091144,-0.02838 -0.1100622,-0.028382 0.00953,-0.00476 0.022565,-0.015416 0.039107,-0.031957 0.016535,-0.016536 0.027187,-0.029499 0.031957,-0.03889 l 0,-0.1421276 c 0.00939,-0.014152 0.031845,-0.038996 0.067381,-0.07453 0.035528,-0.035529 0.060372,-0.057989 0.07453,-0.067381 -3.5e-6,0.00939 0.00946,0.033043 0.028382,0.070956 0.018918,0.037918 0.030762,0.059222 0.035532,0.063914 0.00476,0.0047 0.011877,0.00824 0.021341,0.010616 0.00946,0.00239 0.016571,0.00358 0.021341,0.00357 0.00462,2.7e-6 0.01639,-0.00238 0.035315,-0.00715 0.00953,-0.00939 0.027295,-0.030654 0.053298,-0.063806 0.025995,-0.033146 0.043761,-0.056798 0.053298,-0.070956 l 0,0.3477359 0.1349779,0 c -3.9e-6,-0.018919 -0.00477,-0.060337 -0.014299,-0.1242533 -0.00954,-0.063911 -0.014303,-0.1124066 -0.014299,-0.1454857 l 0,-0.014299 c -3.8e-6,-0.00939 0.00949,-0.022349 0.028491,-0.03889 0.01899,-0.016535 0.033181,-0.027188 0.042573,-0.031957 l 0.071064,0 c 0.00476,0.00477 0.021337,0.01423 0.049723,0.028382 0.028378,0.014158 0.059144,0.02954 0.092296,0.046148 0.033144,0.016613 0.062718,0.031996 0.088721,0.046148 0.025995,0.014158 0.043761,0.021235 0.053298,0.021232 l 0.1419109,0 0.2129747,0.071064 0.141911,0 C 5.0009726,4.8218774 4.96786,4.7982256 4.9205611,4.7650743 4.8732529,4.7319283 4.8223744,4.6963965 4.7679256,4.6584786 4.7134678,4.6205663 4.663781,4.5850705 4.618865,4.5519912 4.5739403,4.5189177 4.5420194,4.4952298 4.5231022,4.4809274 4.513565,4.4763084 4.5005294,4.4656922 4.4839955,4.4490787 4.467453,4.4324713 4.4568007,4.4194719 4.4520384,4.4100803 l 0.2768888,0 c -0.014159,-0.00953 -0.037811,-0.032026 -0.070955,-0.067489 -0.033153,-0.035456 -0.054494,-0.060336 -0.064023,-0.074639 -0.00477,-0.00939 -0.0095,-0.024732 -0.014191,-0.04604 -0.0047,-0.021301 -0.00705,-0.034337 -0.00704,-0.039107 0.00476,3.3e-6 0.020145,0.00119 0.046148,0.00357 0.025995,0.00239 0.041377,0.00596 0.046148,0.010725 L 5.0270496,4.410075 c 0.00953,3.1e-6 0.021372,-0.00238 0.035532,-0.00715 0.01415,-0.00476 0.023611,-0.00715 0.028382,-0.00715 l 0,-0.1278282 c -0.01416,-0.00462 -0.037812,-0.017582 -0.070955,-0.03889 -0.033153,-0.021301 -0.068649,-0.042606 -0.1064874,-0.063914 -0.037847,-0.021301 -0.073343,-0.042606 -0.1064873,-0.063914 -0.033153,-0.021301 -0.056805,-0.03672 -0.070956,-0.046257 -0.00954,-0.00462 -0.022573,-0.015235 -0.039107,-0.031849 -0.016543,-0.016607 -0.027195,-0.029606 -0.031957,-0.038998 l 0.141911,0 c 0.018917,0.00463 0.055604,0.015242 0.1100622,0.031849 0.054449,0.016614 0.088753,0.029613 0.1029125,0.038998 l 0.00715,-0.035315 c -4.8e-6,-0.00476 -0.00239,-0.016607 -0.00715,-0.035532 -0.094613,-0.094742 -0.143108,-0.1468482 -0.1454866,-0.1563126 -0.00239,-0.00946 -0.00358,-0.016571 -0.00357,-0.021341 -4.6e-6,-0.00462 0.00238,-0.01639 0.00715,-0.035315 0.00953,-0.018918 0.033216,-0.044953 0.071064,-0.078105 0.037838,-0.033145 0.061454,-0.054486 0.070847,-0.064022 0.00476,3.8e-6 0.016606,-0.00234 0.035532,-0.00704 0.018917,-0.00469 0.033144,-0.00704 0.042682,-0.00704 0.00938,3.9e-6 0.030688,0.0047 0.063914,0.014083 0.00462,0.00477 0.00931,0.016614 0.014083,0.035532 0.00476,0.018925 0.010684,0.041422 0.017766,0.067489 0.00707,0.026075 0.014186,0.049763 0.021341,0.071064 0.00714,0.021308 0.013031,0.034272 0.017658,0.03889 0.00953,0.00954 0.032024,0.023764 0.067489,0.042682 0.035455,0.018925 0.060334,0.028386 0.074639,0.028382 -0.00954,0.00954 -0.022574,0.033224 -0.039107,0.071064 -0.016543,0.037846 -0.027196,0.061462 -0.031957,0.070847 l 0,0.071064 c 0.00476,-0.014152 0.020144,-0.031881 0.046148,-0.05319 0.025994,-0.021301 0.054376,-0.043798 0.085146,-0.067489 0.03076,-0.023685 0.060334,-0.043798 0.088721,-0.060339 0.028377,-0.016535 0.049718,-0.027187 0.064023,-0.031957 l 0.00715,0 c 0.018916,3.6e-6 0.052029,0.00827 0.099338,0.024807 0.047298,0.016542 0.076872,0.028386 0.088721,0.035532 0.011838,0.00715 0.018952,0.014267 0.021341,0.021341 0.00238,0.00708 0.00357,0.013003 0.00357,0.017766 -5.6e-6,0.00939 -0.00239,0.023547 -0.00715,0.042465 -0.00477,0.00954 -0.017808,0.033224 -0.039107,0.071064 -0.02131,0.037846 -0.031962,0.061534 -0.031957,0.071064 l 0,0.2129747 C 5.725118,4.4242429 5.708542,4.4597029 5.680165,4.5164639 5.651777,4.5732309 5.622204,4.6335704 5.591444,4.6974816 5.560673,4.7613986 5.529908,4.820582 5.499148,4.8750327 5.468377,4.9294887 5.450612,4.9637927 5.44585,4.9779452 l 0,0.071064 C 5.479066,5.0205572 5.508675,4.9862172 5.53468,4.9459884 5.560674,4.9057644 5.586709,4.8655384 5.612785,4.82531 5.638851,4.785087 5.667269,4.750782 5.69804,4.7223975 c 0.03076,-0.02838 0.069758,-0.042571 0.1169952,-0.042573 -5.5e-6,0.023691 -0.00116,0.073377 -0.00347,0.1490606 -0.00232,0.075688 -0.00586,0.1253752 -0.010616,0.1490606 l -0.071064,0.2840385 0,0.141911 c 0.00953,-0.00939 0.022563,-0.033038 0.039107,-0.070956 0.016533,-0.037913 0.027185,-0.061565 0.031957,-0.070956 0.00938,-0.018919 0.02473,-0.055607 0.04604,-0.1100622 0.021299,-0.054451 0.042604,-0.112443 0.063914,-0.1739763 0.021299,-0.061528 0.041412,-0.1183287 0.060339,-0.1704014 0.018916,-0.052067 0.033143,-0.089946 0.042682,-0.1136371 0.00938,2.8e-6 0.033035,-0.00946 0.070955,-0.028382 0.037909,-0.018919 0.061597,-0.03311 0.071064,-0.042573 0.00945,-0.00946 0.021263,-0.034301 0.035424,-0.07453 0.014149,-0.040223 0.025993,-0.06272 0.035532,-0.067489 0.00476,-0.00462 0.017796,-0.010505 0.039107,-0.017658 0.021299,-0.00715 0.043759,-0.01426 0.067381,-0.021341 0.02361,-0.00707 0.04607,-0.014152 0.067381,-0.021232 0.021299,-0.00707 0.034334,-0.010613 0.039107,-0.010616 0.00938,-0.00476 0.033034,-0.015416 0.070955,-0.031957 0.037909,-0.016535 0.061561,-0.029571 0.070955,-0.039107 l 0,0.042682 c 0.023682,3.1e-6 0.075752,0.00473 0.1562103,0.014191 0.080446,0.00946 0.1395933,0.014194 0.1774429,0.014191 l 0.021449,0 c 0.00462,3.1e-6 0.016423,-0.010649 0.035424,-0.031957 0.018987,-0.021302 0.029639,-0.033146 0.031957,-0.035532 0.0023,-0.00238 0.00819,-0.00476 0.017658,-0.00715 0.00945,-0.00238 0.016568,-0.00357 0.021341,-0.00357 0.00476,3.1e-6 0.016604,0.00239 0.035532,0.00715 0.014148,0.00954 0.038992,0.032032 0.07453,0.067489 0.035525,0.035463 0.055638,0.056731 0.060339,0.063806 0.00469,0.00708 0.00823,0.015386 0.010616,0.024916 0.00238,0.00954 0.00357,0.016613 0.00357,0.021232 -6.9e-6,0.00477 -0.00239,0.016613 -0.00715,0.035532 -0.0094,0.00954 -0.033011,0.023763 -0.070847,0.042682 -0.03785,0.018924 -0.061538,0.028385 -0.071064,0.028382 0.00953,0.00477 0.022562,0.015422 0.039107,0.031957 0.016531,0.016541 0.027184,0.029504 0.031957,0.03889 0.00938,0.019069 0.014076,0.033296 0.014083,0.042682 -0.014162,2.7e-6 -0.050813,0.00354 -0.1099539,0.010616 -0.059154,0.00708 -0.098189,0.013002 -0.1171036,0.017766 -0.00954,0.00477 -0.022575,0.015422 -0.039107,0.031957 -0.016545,0.016541 -0.027197,0.029576 -0.031957,0.039107 0.00476,0.00939 0.015412,0.022391 0.031957,0.038998 0.016532,0.016613 0.029567,0.027302 0.039107,0.032065 0.014148,0.00939 0.048452,0.022354 0.1029125,0.03889 0.054447,0.016541 0.091134,0.027193 0.1100622,0.031957 L 7.00773,5.0490142 c 0.018915,0.00939 0.04495,0.031851 0.078105,0.067381 0.033142,0.035534 0.052099,0.056839 0.056873,0.063914 0.00476,0.00708 0.0083,0.023654 0.010616,0.049723 0.0023,0.026073 0.00346,0.046186 0.00347,0.060339 -6.9e-6,0.014157 -0.00116,0.035462 -0.00347,0.063914 -0.00232,0.028456 -0.00347,0.044995 -0.00347,0.049615 -0.00477,0.018923 -0.015426,0.04615 -0.031957,0.08168 -0.016545,0.035534 -0.027197,0.054491 -0.031957,0.056873 -0.00477,0.00239 -0.019001,0.00473 -0.042682,0.00704 -0.023695,0.00231 -0.042616,0.00347 -0.056764,0.00347 l -0.511096,-0.077997 -0.1065957,0 c 0.00476,0.00939 0.015413,0.02239 0.031957,0.038998 0.016532,0.016612 0.029568,0.027301 0.039107,0.032065 0.00476,0.00462 0.017796,0.012857 0.039107,0.024699 0.021299,0.011846 0.043759,0.026073 0.067381,0.042682 0.023609,0.016612 0.04607,0.031995 0.067381,0.046148 0.021298,0.014157 0.033142,0.022426 0.035532,0.024807 0.00238,0.00239 0.00476,0.00831 0.00715,0.017766 0.00238,0.00946 0.00357,0.016576 0.00357,0.021341 -6.4e-6,0.00477 -0.00239,0.016612 -0.00715,0.035532 -0.00477,0.00462 -0.017808,0.014048 -0.039107,0.028274 -0.021311,0.014229 -0.043771,0.029612 -0.067381,0.046148 -0.023622,0.01654 -0.046082,0.030731 -0.067381,0.042573 -0.021311,0.011845 -0.034346,0.020151 -0.039107,0.024916 -0.00954,0.00477 -0.022575,0.01542 -0.039107,0.031957 -0.016544,0.01654 -0.027197,0.029575 -0.031957,0.039107 0.018915,0.00939 0.055603,0.033042 0.1100622,0.070955 0.054447,0.037916 0.088751,0.061568 0.1029125,0.070955 0.018915,0.014156 0.046142,0.039 0.08168,0.07453 0.035526,0.035533 0.055675,0.057993 0.060448,0.067381 l 0.070847,0.2840385 c 0.047369,0.047377 0.072249,0.075795 0.074639,0.085255 0.00238,0.00946 0.00357,0.016575 0.00357,0.021341 -6.6e-6,0.00462 -0.00239,0.016467 -0.00715,0.035532 -0.00477,0.00939 -0.015425,0.023544 -0.031957,0.042465 -0.016545,0.018922 -0.027197,0.028383 -0.031957,0.028382 -0.00477,7e-7 -0.020156,0.00119 -0.046148,0.00357 -0.026005,0.00238 -0.046082,0.00358 -0.060231,0.00357 -0.014306,7e-7 -0.035647,-0.00119 -0.064022,-0.00357 -0.028389,-0.00238 -0.044963,-0.00357 -0.049723,-0.00357 l -0.2129747,-0.070847 -0.070847,0 L 6.7947602,7.0368406 6.3688108,7.46279 C 6.3640408,7.46756 6.3344648,7.450982 6.2800898,7.413067 6.2257028,7.375152 6.1842848,7.344423 6.1558365,7.320879 6.1416755,7.311349 6.1168325,7.287658 6.0813065,7.249815 6.0457685,7.211972 6.0232725,7.18832 6.0138175,7.178859 6.0043475,7.169399 5.9913515,7.145711 5.9748195,7.107795 5.9582755,7.06988 5.9476235,7.046228 5.9428614,7.0368406 z M 5.985543,3.4658852 c -0.00954,0.00463 -0.022574,0.015242 -0.039107,0.031849 -0.016544,0.016614 -0.027196,0.02965 -0.031957,0.039107 -0.00477,0.00946 -0.015424,0.033116 -0.031957,0.070955 -0.016544,0.037847 -0.027196,0.059151 -0.031957,0.063914 -0.00477,0.00477 -0.011886,0.00831 -0.021341,0.010616 -0.00947,0.00231 -0.016508,0.00347 -0.021124,0.00347 L 5.772568,3.6788662 C 5.767798,3.6645702 5.758299,3.6408822 5.744078,3.6078022 5.729845,3.5747302 5.715654,3.5392342 5.701505,3.5013149 5.687345,3.4634039 5.673153,3.4279079 5.658932,3.3948275 5.644699,3.3617555 5.635203,3.3380675 5.630442,3.3237635 L 5.5595936,3.0399358 C 5.5500553,3.0162523 5.5370198,2.9771817 5.5204868,2.9227239 5.5039434,2.8682751 5.493291,2.836282 5.4885298,2.8267444 L 5.417466,2.7558973 C 5.408076,2.7463673 5.395073,2.7238733 5.378468,2.6884083 5.361852,2.6529533 5.351236,2.6304573 5.346619,2.6209193 c -0.00477,0.014304 -0.010694,0.034453 -0.017766,0.060448 -0.00708,0.026004 -0.014196,0.053194 -0.021341,0.081572 -0.00715,0.028387 -0.013077,0.055614 -0.017766,0.08168 -0.0047,0.026076 -0.00943,0.043806 -0.014191,0.05319 -0.00477,0.00477 -0.017807,0.016615 -0.039107,0.035532 -0.02131,0.018926 -0.031962,0.03077 -0.031957,0.035532 l 0,0.2129747 C 5.204486,3.186618 5.193834,3.198463 5.172534,3.21738 5.151224,3.236306 5.138261,3.24815 5.133644,3.252912 5.124104,3.267071 5.111071,3.301375 5.094537,3.3558245 5.077994,3.4102815 5.067342,3.4469695 5.06258,3.4658867 5.05304,3.4611267 5.040007,3.4504357 5.023473,3.4338217 5.00693,3.4172157 4.996278,3.4042157 4.991516,3.3948237 4.982126,3.3806727 4.964393,3.3475607 4.938327,3.2954857 4.912251,3.2434197 4.894521,3.2079237 4.885137,3.1889983 l 0,0.4471819 c -0.00954,3.8e-6 -0.052147,-0.00119 -0.1278282,-0.00357 -0.07569,-0.00238 -0.1691419,-0.00592 -0.2803553,-0.010616 -0.1112218,-0.00469 -0.1999793,-0.00942 -0.2662726,-0.014191 -0.014303,3.9e-6 -0.039183,-0.00946 -0.074639,-0.028382 -0.035463,-0.018918 -0.05796,-0.033145 -0.067489,-0.042682 l 0.1421275,-0.1419109 -0.021449,0 c -0.028314,4.1e-6 -0.064965,-0.00827 -0.1099539,-0.024807 -0.044996,-0.016534 -0.06984,-0.028378 -0.07453,-0.035532 -0.0047,-0.00715 -0.00824,-0.02372 -0.010616,-0.049723 -0.00239,-0.025995 -0.00358,-0.043761 -0.00357,-0.053298 -3.7e-6,-0.014151 0.00119,-0.036611 0.00357,-0.067381 0.00238,-0.030761 0.00357,-0.048527 0.00357,-0.053298 l 0.070847,-0.070847 c -3.9e-6,-0.00476 -0.00354,-0.017798 -0.010616,-0.039107 -0.00708,-0.0213 -0.014159,-0.043797 -0.021232,-0.067489 -0.00708,-0.023683 -0.01535,-0.04618 -0.024807,-0.067489 -0.00946,-0.0213 -0.014195,-0.034336 -0.014191,-0.039107 l 0,-0.1419109 c 0.023684,-0.00476 0.071024,-0.015414 0.1420193,-0.031957 0.070988,-0.016533 0.1182551,-0.029569 0.1418026,-0.039107 0.00953,-0.00462 0.022564,-0.015233 0.039107,-0.031849 0.016534,-0.016605 0.027187,-0.029605 0.031957,-0.038998 l 0,-0.014299 c -4.1e-6,-0.023683 -0.00473,-0.057987 -0.014191,-0.1029125 -0.00946,-0.044915 -0.014195,-0.076836 -0.014191,-0.095763 l -0.1845926,0 0.071064,-0.1421276 -0.035532,0 -0.3195704,0.071064 -0.070847,0 c 0.00462,-0.00938 0.015235,-0.022383 0.031849,-0.038998 0.016607,-0.016605 0.029606,-0.027294 0.038998,-0.032065 0.014296,-0.00938 0.037984,-0.02473 0.071064,-0.04604 0.033073,-0.021299 0.068569,-0.042604 0.1064874,-0.063914 0.037911,-0.021299 0.073407,-0.041412 0.1064873,-0.060339 0.033073,-0.018916 0.056761,-0.033143 0.071064,-0.042682 l 0,-0.070847 c 0,0 -0.1534268,-0.051142 -0.6389241,-0.2129747 0,0 0.015235,-0.022563 0.031849,-0.039107 0.016607,-0.016532 0.029643,-0.027185 0.039107,-0.031957 0.00946,-0.00476 0.033109,-0.015413 0.070955,-0.031957 0.037839,-0.016532 0.059144,-0.027185 0.063914,-0.031957 0.00476,-0.00476 0.0083,-0.011874 0.010616,-0.021341 0.00231,-0.00945 0.00346,-0.016568 0.00347,-0.021341 -3.6e-6,-0.00462 -0.00231,-0.016388 -0.00693,-0.035315 -0.014303,-0.00953 -0.048643,-0.023754 -0.1030208,-0.042682 -0.054384,-0.018915 -0.091036,-0.028376 -0.1099539,-0.028382 0.00939,-0.00476 0.022385,-0.015413 0.038998,-0.031957 0.016607,-0.016532 0.027223,-0.029568 0.031849,-0.039107 l 0,-0.1419109 c 0.00953,-0.014149 0.032026,-0.038992 0.067489,-0.07453 0.035456,-0.035525 0.060336,-0.058058 0.074639,-0.067597 -3.5e-6,0.00954 0.00946,0.033227 0.028382,0.071064 0.018918,0.037849 0.030726,0.059154 0.035424,0.063914 0.00469,0.00477 0.011768,0.00835 0.021232,0.010725 0.00946,0.00239 0.016571,0.00358 0.021341,0.00357 0.00476,6.2e-6 0.016607,-0.00238 0.035532,-0.00715 0.00953,-0.00953 0.027295,-0.030831 0.053298,-0.063914 0.025995,-0.03307 0.043761,-0.056758 0.053298,-0.071064 l 0,0.3479526 0.1347612,0 C 4.167996,1.3880699 4.1632657,1.3466522 4.1538088,1.282732 4.1443442,1.2188241 4.1396139,1.1703289 4.1396177,1.1372462 l 0,-0.014299 c -3.8e-6,-0.00938 0.00946,-0.022382 0.028382,-0.038998 0.018918,-0.016604 0.033145,-0.027292 0.042682,-0.032065 l 0.070847,0 c 0.00476,0.00477 0.021337,0.01427 0.049723,0.028491 0.028378,0.014234 0.059144,0.029616 0.092296,0.046148 0.033144,0.016545 0.062754,0.031927 0.08883,0.046148 0.026067,0.014234 0.043797,0.021347 0.05319,0.021341 l 0.1421275,0 0.2129747,0.071064 0.141911,0 C 5.0436541,1.2507811 5.0105416,1.2270571 4.9632427,1.1939022 4.9159344,1.1607599 4.865056,1.1252641 4.8106072,1.0874149 4.7561494,1.0495784 4.7064264,1.0140826 4.6614383,0.98092751 4.6164413,0.94778537 4.5844843,0.92413358 4.5655672,0.90997206 4.5561744,0.90521214 4.5431749,0.8945598 4.5265687,0.87801502 4.509954,0.8614834 4.4992656,0.84844783 4.4945034,0.83890827 l 0.2768888,0 c -0.014159,-0.009382 -0.037811,-0.0318421 -0.070956,-0.0673806 -0.033153,-0.0355252 -0.054422,-0.0603686 -0.063806,-0.0745303 -0.00477,-0.009382 -0.0095,-0.0247283 -0.014191,-0.0460398 -0.0047,-0.0212978 -0.00705,-0.0343334 -0.00704,-0.0391067 0.00462,6.85e-6 0.019964,0.001198 0.04604,0.003575 0.026067,0.00239 0.041485,0.005893 0.046256,0.0105079 l 0.3620354,0.21297471 c 0.00938,6.62e-6 0.021191,-0.00234 0.035424,-0.007041 0.014222,-0.004688 0.023719,-0.007035 0.028491,-0.007041 l 0,-0.12782815 C 5.1193399,0.69223764 5.095652,0.67920207 5.0625804,0.6578906 5.0294992,0.63659273 4.9940034,0.61532417 4.956093,0.59408485 4.9181732,0.57285926 4.8826775,0.5515907 4.8496057,0.5302791 4.8165247,0.5089814 4.7928367,0.4935626 4.7785417,0.4840226 4.7691517,0.4792636 4.7561497,0.4686108 4.7395437,0.4520656 4.7229287,0.4355344 4.7123127,0.4224988 4.7076947,0.4129588 l 0.141911,0 c 0.018917,0.004774 0.055604,0.015462 0.1100622,0.0320654 0.054449,0.0166174 0.088753,0.0296169 0.1029125,0.0389984 l 0.00715,-0.0355319 C 5.0697256,0.4437317 5.0673404,0.4318873 5.0625804,0.4129588 4.9679684,0.3183587 4.9194732,0.26632471 4.9170946,0.25685679 c -0.00239,-0.009454 -0.00358,-0.0165671 -0.00357,-0.0213408 -4.6e-6,-0.004759 0.00238,-0.0166032 0.00715,-0.0355319 0.00938,-0.0189142 0.033,-0.0449131 0.070847,-0.0779968 0.037838,-0.03306906 0.061526,-0.05437374 0.071064,-0.06391408 0.00476,7.41e-6 0.016606,-0.0023758 0.035532,-0.0071497 0.018917,-0.0047591 0.033071,-0.0071423 0.042465,-0.0071497 0.00953,7.42e-6 0.030833,0.0047739 0.063914,0.01429942 0.00476,0.0047739 0.00953,0.01661783 0.014299,0.0355319 0.00476,0.0189288 0.010684,0.04138898 0.017766,0.0673806 0.00707,0.0260062 0.01415,0.049658 0.021232,0.0709555 0.00707,0.0213119 0.012994,0.0343475 0.017766,0.0391067 0.00953,0.00954 0.032024,0.0237673 0.067489,0.0426816 0.035455,0.0189286 0.060262,0.0283893 0.074422,0.0283822 -0.00939,0.009396 -0.022393,0.0330474 -0.038998,0.0709555 -0.016616,0.0379221 -0.027232,0.0615739 -0.031849,0.0709555 l 0,0.0710638 c 0.00462,-0.0142925 0.019964,-0.0320584 0.04604,-0.0532978 0.026066,-0.0212255 0.054484,-0.0436857 0.085255,-0.0673806 0.03076,-0.0236809 0.060334,-0.04383 0.088722,-0.0604476 0.028377,-0.0166033 0.049645,-0.0272196 0.063806,-0.0318487 l 0.00715,0 c 0.018916,7.12e-6 0.052065,0.008276 0.099446,0.0248073 0.04737,0.0165453 0.076944,0.0283531 0.088721,0.0354236 0.011766,0.007085 0.018844,0.0141981 0.021232,0.0213408 0.00238,0.007157 0.00357,0.0130426 0.00357,0.0176576 -5.6e-6,0.00954 -0.00239,0.0237671 -0.00715,0.0426816 -0.00463,0.00954 -0.017591,0.0332278 -0.03889,0.0710638 -0.02131,0.0378498 -0.031962,0.0614655 -0.031957,0.0708471 l 0,0.21297471 c -0.00477,0.014306 -0.021346,0.0498379 -0.049723,0.10659568 -0.028388,0.0567708 -0.057961,0.11710998 -0.088721,0.18101768 -0.030771,0.06392 -0.061536,0.123104 -0.092296,0.1775512 -0.030771,0.054459 -0.048537,0.088764 -0.053298,0.1029125 l 0,0.071064 c 0.033071,-0.028448 0.062645,-0.062789 0.088721,-0.1030208 0.026066,-0.04022 0.052101,-0.080446 0.078105,-0.1206784 0.025994,-0.04022 0.054376,-0.074524 0.085147,-0.1029125 0.03076,-0.028376 0.069831,-0.042567 0.1172119,-0.042573 -5.6e-6,0.02355 -0.0012,0.073201 -0.00357,0.1489523 -0.00239,0.075764 -0.00596,0.1254871 -0.010725,0.149169 l -0.070847,0.2840385 0,0.1419109 c 0.00938,-0.00953 0.022382,-0.033215 0.038998,-0.071064 0.016605,-0.037837 0.027221,-0.061453 0.031849,-0.070847 0.00953,-0.018916 0.024946,-0.055603 0.046257,-0.1100623 0.021299,-0.054447 0.042604,-0.1124394 0.063914,-0.1739762 0.021299,-0.061525 0.041412,-0.1183252 0.060339,-0.1704015 0.018916,-0.052064 0.033071,-0.089943 0.042465,-0.113637 0.00953,6.3e-6 0.033215,-0.00945 0.071064,-0.028382 0.037837,-0.018915 0.061489,-0.033106 0.070956,-0.042573 0.00945,-0.00945 0.021299,-0.034298 0.035532,-0.0745303 0.014221,-0.0402196 0.026029,-0.0627159 0.035424,-0.0674889 0.00476,-0.00476 0.017796,-0.0106819 0.039107,-0.0177659 0.021299,-0.007071 0.043795,-0.0141484 0.067489,-0.0212325 0.023682,-0.007071 0.046178,-0.0141845 0.067489,-0.0213408 0.021298,-0.007143 0.034334,-0.0107179 0.039107,-0.0107246 0.00938,-0.004615 0.032998,-0.0152316 0.070847,-0.0318487 0.037837,-0.0166038 0.061524,-0.0296032 0.071064,-0.0389984 l 0,0.0424649 c 0.023681,6.65e-6 0.075752,0.004737 0.1562104,0.0141911 0.080446,0.009467 0.1395932,0.0141977 0.1774428,0.0141911 l 0.021232,0 c 0.00476,6.62e-6 0.016604,-0.0106096 0.035532,-0.0318487 0.018915,-0.0212258 0.029567,-0.0330336 0.031957,-0.0354236 0.00238,-0.002377 0.0083,-0.00476 0.017766,-0.00715 0.00945,-0.002377 0.016567,-0.003568 0.021341,-0.003575 0.00476,6.7e-6 0.016604,0.00239 0.035532,0.00715 0.014148,0.009395 0.038955,0.0318554 0.074422,0.0673806 0.035453,0.0355385 0.055566,0.0568432 0.060339,0.0639141 0.00476,0.007084 0.00833,0.0153531 0.010725,0.0248073 0.00238,0.009467 0.00357,0.0165808 0.00357,0.0213408 -7e-6,0.004773 -0.00239,0.0166169 -0.00715,0.0355319 -0.00954,0.009395 -0.033228,0.02355 -0.071064,0.042465 -0.03785,0.018928 -0.061465,0.028389 -0.070847,0.028382 0.00938,0.00477 0.022381,0.015461 0.038998,0.032065 0.016604,0.016617 0.02722,0.029616 0.031849,0.038998 0.00953,0.018928 0.014292,0.033155 0.014299,0.042682 -0.014162,6.3e-6 -0.050849,0.00355 -0.1100622,0.010616 -0.059227,0.00708 -0.098297,0.013006 -0.117212,0.017766 -0.0094,0.00477 -0.022395,0.015425 -0.038998,0.031957 -0.016617,0.016544 -0.027233,0.02958 -0.031849,0.039107 0.00462,0.00939 0.015232,0.022358 0.031849,0.03889 0.016604,0.016544 0.029603,0.027197 0.038998,0.031957 0.014293,0.00954 0.048633,0.022575 0.1030209,0.039107 0.054374,0.016544 0.091025,0.027197 0.1099538,0.031957 L 7.0504165,1.478049 c 0.018915,0.00939 0.04495,0.031855 0.078105,0.067381 0.033142,0.035538 0.052063,0.056842 0.056764,0.063914 0.00469,0.00708 0.00823,0.023622 0.010616,0.049615 0.00238,0.026005 0.00357,0.046154 0.00357,0.060447 -7e-6,0.014161 -0.0012,0.035429 -0.00357,0.063806 -0.00239,0.028388 -0.00358,0.044962 -0.00357,0.049723 -0.00463,0.018927 -0.015245,0.046154 -0.031849,0.08168 -0.016617,0.035537 -0.02727,0.054459 -0.031957,0.056764 -0.0047,0.00232 -0.018892,0.00466 -0.042573,0.00704 -0.023695,0.00239 -0.042616,0.00358 -0.056764,0.00357 l -0.5113127,-0.077997 -0.106379,0 c 0.00476,0.00939 0.015413,0.022394 0.031957,0.038998 0.016532,0.016616 0.029568,0.027232 0.039107,0.031849 0.00462,0.00477 0.017579,0.013077 0.03889,0.024916 0.021298,0.011849 0.043795,0.02604 0.067489,0.042573 0.023682,0.016544 0.046178,0.031926 0.067489,0.046148 0.021298,0.014232 0.033142,0.022538 0.035532,0.024916 0.00238,0.00239 0.00472,0.00831 0.00704,0.017766 0.0023,0.00947 0.00346,0.01658 0.00347,0.021341 -6.5e-6,0.00463 -0.00232,0.016399 -0.00693,0.035315 -0.00477,0.00477 -0.017808,0.014269 -0.039107,0.028491 -0.021311,0.014232 -0.043807,0.029615 -0.067489,0.046148 -0.023694,0.016544 -0.04619,0.030734 -0.067489,0.042573 -0.021311,0.011849 -0.034274,0.020154 -0.03889,0.024916 -0.00954,0.00477 -0.022575,0.015424 -0.039107,0.031957 -0.016544,0.016543 -0.027197,0.029507 -0.031957,0.03889 0.018915,0.00954 0.055603,0.033226 0.1100622,0.071064 0.054447,0.037848 0.088751,0.061536 0.1029125,0.071064 0.018915,0.01416 0.046106,0.039003 0.081572,0.07453 0.035453,0.035537 0.055566,0.057997 0.060339,0.067381 l 0.071064,0.2840385 c 0.047369,0.04738 0.072213,0.075799 0.07453,0.085255 0.0023,0.00947 0.00346,0.016507 0.00347,0.021124 -6.7e-6,0.00477 -0.00232,0.016615 -0.00693,0.035532 -0.00477,0.00954 -0.015462,0.023765 -0.032065,0.042682 -0.016617,0.018926 -0.027269,0.028386 -0.031957,0.028382 -0.0047,4.3e-6 -0.020084,0.0012 -0.046148,0.00357 -0.026078,0.00239 -0.046191,0.00358 -0.060339,0.00357 -0.014161,4.3e-6 -0.03543,-0.00119 -0.063806,-0.00357 -0.028389,-0.00238 -0.044963,-0.00357 -0.049723,-0.00357 l -0.2129747,-0.071064 -0.071064,0 0.4970132,0.3551023 -0.4259494,0.4259494 c -0.00477,0.00463 -0.034383,-0.011985 -0.08883,-0.049831 -0.054459,-0.037839 -0.095841,-0.068605 -0.124145,-0.092296 -0.014161,-0.00938 -0.039004,-0.033 -0.07453,-0.070847 -0.035554,-0.037834 -0.05805,-0.061522 -0.067505,-0.071059 C 6.0470319,3.598267 6.0340325,3.5745791 6.0175,3.5367323 6.0009561,3.4988934 5.9903037,3.4752777 5.985543,3.4658852 z"
       id="path3010"
       inkscape:connector-curvature="0"
       sodipodi:nodetypes="cccccccccccccccsccccccsccsccccccccsccsccccccccccccccccccccsccccccccccccccccccccccccccccccccccccccccccccccccccccccccccccccccccccccccccccccccccccccccccsccccccccccccsccscsccsscccccccccccccscccccccccscccccccccccccccccccccccccccccccccccccccccccccccccccsccccccccccccccccccscccccccccccccccccccccccccccccccccccccccccsccccccccccsccccccccccccccccccccccccccccccccccccccccccccccccccccccccccccccccccccccccccccccccccccccccccccccccccccccccccccscsccccccccccccccccccccccccccccccccccccccccsccccccccccccccccccccccccccccccccccccccccccccccccccccccccccccccccccccccsccccccccccccccccccccccccccccsccsccccccccsccccccccccccccccccccccccccccccccccccccccccccccccccccccccccccccccccccccccccccccccccccccccccccccccccccccccccccccccccccccccccccccccccccccccccccccccccccccccsccccccccccccccccccccccccccccccccccccccccccccccccccccccccccccccccccccccccccccccccccccccc"
       style="fill-opacity:1;fill:param(fill) #000000" />
  </g>
</svg>
