<?xml version="1.0" encoding="UTF-8" standalone="no"?>
<!--
117.svg
copyright: (C) 2014 Grupo Utilizadores QGIS Portugal
email: qgis.portugal@gmail.com
Este ficheiro é software livre; você pode redistribuí-lo
e/ou modificá-lo nos termos da Licença Pública Geral GNU
versão 2 (GPL2) como publicada pela Fundação do
Software Livre (FSF).
-->
<!-- Created with Inkscape (http://www.inkscape.org/) -->

<svg
   xmlns:dc="http://purl.org/dc/elements/1.1/"
   xmlns:cc="http://creativecommons.org/ns#"
   xmlns:rdf="http://www.w3.org/1999/02/22-rdf-syntax-ns#"
   xmlns:svg="http://www.w3.org/2000/svg"
   xmlns="http://www.w3.org/2000/svg"
   xmlns:sodipodi="http://sodipodi.sourceforge.net/DTD/sodipodi-0.dtd"
   xmlns:inkscape="http://www.inkscape.org/namespaces/inkscape"
   version="1.2"
   width="7.5000005"
   height="7.5"
   id="svg2"
   inkscape:version="0.48.4 r9939"
   sodipodi:docname="117.svg">
  <sodipodi:namedview
     pagecolor="#ffffff"
     bordercolor="#666666"
     borderopacity="1"
     objecttolerance="10"
     gridtolerance="10"
     guidetolerance="10"
     inkscape:pageopacity="0"
     inkscape:pageshadow="2"
     inkscape:window-width="1366"
     inkscape:window-height="716"
     id="namedview3274"
     showgrid="false"
     inkscape:zoom="124.34507"
     inkscape:cx="3.9407673"
     inkscape:cy="6.5280611"
     inkscape:window-x="-8"
     inkscape:window-y="-8"
     inkscape:window-maximized="1"
     inkscape:current-layer="svg2" />
  <defs
     id="defs4" />
  <metadata
     id="metadata7">
    <rdf:RDF>
      <cc:Work
         rdf:about="">
        <dc:format>image/svg+xml</dc:format>
        <dc:type />
        <dc:title></dc:title>
      </cc:Work>
    </rdf:RDF>
  </metadata>
  <g
     id="117">
    <path
       d="M 3.6875,0 C 3.4390946,0.20665547 3.5502511,0.64169499 3.287287,0.80820535 3.0957971,0.8469478 2.8953343,0.88204348 3.0625,1.09375 3.0962679,1.2633878 3.1713744,1.5308226 3.0027469,1.6535031 2.8193203,1.8078711 2.9064357,2.0965803 2.78125,2.28125 2.6463026,2.4074358 2.2714138,2.3572814 2.40625,2.6875 2.4008078,2.8514471 2.6768387,3.2359524 2.3213391,3.1492985 2.1266297,3.1417886 2.0347633,2.8780292 1.8253646,2.9375 1.58182,2.9242168 1.8296708,3.3136331 1.9521427,3.3743452 2.1380759,3.5423975 2.3563017,3.6791113 2.5353102,3.8548722 2.7490475,3.9936124 2.5487317,4.1218497 2.3694792,4.15625 2.0641996,4.1745259 1.7656822,4.0783284 1.4633974,4.0665644 1.3110677,4.0915652 0.93720506,4.0757844 1.2031246,4.264536 1.4185414,4.5370932 1.783721,4.5928547 2.0625,4.78125 2.2619977,4.8575716 2.3222768,5.1956278 2.0926271,5.2631737 1.8780325,5.370183 1.6552705,5.4615667 1.4375,5.5625 1.1471089,5.8100205 1.8206449,5.8020139 1.942258,5.9155347 2.1321069,5.9657503 2.3151466,6.032174 2.434646,6.1999142 2.5113327,6.3286311 2.6490388,6.4107588 2.78125,6.28125 2.9717407,6.237629 3.170098,6.225127 3.3676562,6.21875 3.7468448,6.22664 3.7366881,6.6907747 3.71875,6.96875 3.792402,7.1150104 3.549445,7.4545772 3.737135,7.46875 3.8497588,7.392829 4.1399272,7.604334 4,7.40625 3.9988083,7.1968922 3.9387733,6.9882394 4.0198513,6.7853747 4.0549008,6.6381665 4.0899504,6.4909582 4.125,6.34375 4.3053272,6.3744108 4.3923295,6.1120682 4.5790624,6.15625 4.7810677,6.1418079 4.9944826,6.1888904 5.1875,6.125 5.348623,5.9920303 5.6312194,6.0491822 5.7523248,5.83612 5.9598832,5.6199133 6.1674416,5.4037067 6.375,5.1875 6.51972,4.9078212 6.0426421,4.8857804 5.8382292,4.84375 5.6632391,4.8332551 5.4781299,4.8653215 5.3098369,4.8266581 5.0722327,4.701781 5.1388418,4.4229863 5.40625,4.4375 5.6388258,4.4077428 5.8463139,4.0339744 5.7430037,3.8739125 5.5127938,3.9403044 5.0120598,3.9402359 5.1875,3.5625 5.3522012,3.504806 5.4063658,3.3309236 5.3510488,3.1636095 5.3909267,2.9363266 5.1658735,2.8053548 5.0107109,2.9732162 4.8752714,3.1244978 4.5131811,2.859085 4.71875,2.71875 4.7941486,2.6040796 4.7743719,2.4409435 4.8102161,2.3061311 4.816669,2.147789 4.8895799,2.0039431 4.90625,1.8510938 4.8424669,1.6194831 4.4711767,1.7216087 4.2682491,1.6540735 4.1185018,1.6039764 4.1159348,1.3733226 4.125,1.21875 4.0653069,1.0353794 3.9957635,0.92766355 3.9751932,0.72491622 3.899025,0.48499581 3.9386091,0.15804069 3.6875,0 z"
       id="path3025"
       inkscape:connector-curvature="0"
       style="fill-opacity:1;fill:param(fill) #000000" />
  </g>
</svg>
