<?xml version="1.0" encoding="UTF-8" standalone="no"?>
<!-- Created with Inkscape (http://www.inkscape.org/) -->

<svg
   xmlns:dc="http://purl.org/dc/elements/1.1/"
   xmlns:cc="http://creativecommons.org/ns#"
   xmlns:rdf="http://www.w3.org/1999/02/22-rdf-syntax-ns#"
   xmlns:svg="http://www.w3.org/2000/svg"
   xmlns="http://www.w3.org/2000/svg"
   xmlns:sodipodi="http://sodipodi.sourceforge.net/DTD/sodipodi-0.dtd"
   xmlns:inkscape="http://www.inkscape.org/namespaces/inkscape"
   id="svg3427"
   xml:space="preserve"
   height="500"
   width="500"
   version="1.1"
   viewBox="0 0 499.99741 499.99741"
   inkscape:version="0.48.4 r9939"
   sodipodi:docname="59-2a.svg"><defs
   id="defs8" /><sodipodi:namedview
   pagecolor="#ffffff"
   bordercolor="#666666"
   borderopacity="1"
   objecttolerance="10"
   gridtolerance="10"
   guidetolerance="10"
   inkscape:pageopacity="0"
   inkscape:pageshadow="2"
   inkscape:window-width="1680"
   inkscape:window-height="1024"
   id="namedview12"
   showgrid="false"
   inkscape:zoom="1.3948276"
   inkscape:cx="148.24167"
   inkscape:cy="266.08756"
   inkscape:window-x="-4"
   inkscape:window-y="-4"
   inkscape:window-maximized="1"
   inkscape:current-layer="svg3427"
   inkscape:snap-global="false"><inkscape:grid
     snapvisiblegridlinesonly="true"
     enabled="true"
     visible="true"
     empspacing="5"
     units="mm"
     id="grid3781"
     type="xygrid" /></sodipodi:namedview><metadata
   id="metadata9"><rdf:RDF><cc:Work
       rdf:about=""><dc:format>image/svg+xml</dc:format><dc:type
         rdf:resource="http://purl.org/dc/dcmitype/StillImage" /><dc:title></dc:title></cc:Work></rdf:RDF></metadata>

<path
   id="rect3774"
   transform="scale(0.99999482,0.99999482)"
   d="M 135.71875 93.6875 L 135.71875 126.03125 L 498.8125 126.03125 L 498.8125 93.6875 L 135.71875 93.6875 z M 315.03125 126.0625 L 315.03125 135.78125 L 311.0625 135.78125 C 309.43813 135.70605 307.76622 135.6542 306.09375 135.65625 C 254.23604 135.71115 180.60941 172.33913 165.8125 212.65625 L 91.6875 186.125 A 46.463561 47.033473 0 0 0 0 196.71875 A 46.463561 47.033473 0 0 0 82.5 226.375 C 145.37359 255.37084 197.87202 296.89079 232.40625 361.375 L 416.53125 360.84375 L 499.4375 293.28125 L 500.125 248.3125 C 453.60728 210.74512 476.95644 170.84058 335.65625 136.4375 L 335.65625 126.0625 L 315.03125 126.0625 z M 314.90625 186.3125 L 339.1875 186.3125 L 339.1875 234.9375 L 387.75 234.9375 L 387.75 259.25 L 339.1875 259.25 L 339.1875 307.90625 L 314.90625 307.90625 L 314.90625 259.25 L 266.40625 259.25 L 266.40625 234.9375 L 314.90625 234.9375 L 314.90625 186.3125 z "
   style="fill:param(fill) #FFF;fill-opacity:1" /><path
   id="path5258"
   d="m 188.69965,380.77892 237.87287,0 43.39995,-42.27785 19.18109,17.74936 -47.95272,48.10616 -252.5053,0.69486 z"
   inkscape:connector-curvature="0"
   style="fill:param(fill) #FFF;fill-opacity:1" /></svg>
