<?xml version="1.0" encoding="UTF-8" standalone="no"?>
<!-- Generator: Adobe Illustrator 16.0.0, SVG Export Plug-In . SVG Version: 6.00 Build 0)  -->

<svg
   xmlns:dc="http://purl.org/dc/elements/1.1/"
   xmlns:cc="http://creativecommons.org/ns#"
   xmlns:rdf="http://www.w3.org/1999/02/22-rdf-syntax-ns#"
   xmlns:svg="http://www.w3.org/2000/svg"
   xmlns="http://www.w3.org/2000/svg"
   xmlns:sodipodi="http://sodipodi.sourceforge.net/DTD/sodipodi-0.dtd"
   xmlns:inkscape="http://www.inkscape.org/namespaces/inkscape"
   id="svg3427"
   xml:space="preserve"
   height="500"
   viewBox="0 0 499.99741 499.99741"
   width="500"
   version="1.1"
   y="0px"
   x="0px"
   enable-background="new 0 0 579.997 579.997"
   inkscape:version="0.48.4 r9939"
   sodipodi:docname="57-metadados.svg"><sodipodi:namedview
   pagecolor="#ffffff"
   bordercolor="#666666"
   borderopacity="1"
   objecttolerance="10"
   gridtolerance="10"
   guidetolerance="10"
   inkscape:pageopacity="0"
   inkscape:pageshadow="2"
   inkscape:window-width="1680"
   inkscape:window-height="1024"
   id="namedview6"
   showgrid="false"
   inkscape:zoom="1.1508772"
   inkscape:cx="118.82623"
   inkscape:cy="290"
   inkscape:window-x="-4"
   inkscape:window-y="-4"
   inkscape:window-maximized="1"
   inkscape:current-layer="svg3427" /><metadata
   id="metadata9"><rdf:RDF><cc:Work
       rdf:about=""><dc:format>image/svg+xml</dc:format><dc:type
         rdf:resource="http://purl.org/dc/dcmitype/StillImage" /><dc:title></dc:title><dc:date></dc:date><dc:creator><cc:Agent><dc:title></dc:title></cc:Agent></dc:creator><dc:rights><cc:Agent><dc:title></dc:title></cc:Agent></dc:rights><dc:publisher><cc:Agent><dc:title></dc:title></cc:Agent></dc:publisher><dc:description></dc:description><cc:license
         rdf:resource="" /></cc:Work></rdf:RDF></metadata>
<defs
   id="defs3">
</defs>
<path
   id="path7"
   stroke="param(outline) #000"
   stroke-width="param(outline-width) 1"
   d="m 499.98236,250.0082 c 0.52557,-15.84546 -16.04287,-17.88313 -33.55675,-26.26594 l 22.6985,-83.5633 h -29.49342 l -47.70774,76.39928 c -19.05504,-6.64062 -74.04772,-8.37965 -126.73063,-8.37965 L 337.38325,-2.3e-6 H 280.63899 L 167.3935,209.49653 c -47.28689,0 -106.577027,3.29129 -125.535249,5.57483 C 24.274228,217.204 0,225.64063 0,249.99765 c 0,24.35702 24.274228,32.77677 41.858251,34.94423 18.967114,2.2466 78.252309,5.53789 125.535249,5.53789 l 113.24549,209.51764 h 56.74426 L 285.19232,291.81992 c 52.68193,0 107.67361,-1.76013 126.73063,-8.38176 l 47.70774,76.40139 h 29.49342 l -22.6985,-83.5844 c 17.51586,-8.36804 34.08331,-10.40465 33.55971,-26.24378 z"
   fill="param(fill) #FFF"
   inkscape:connector-curvature="0" />
</svg>
