<?xml version="1.0" encoding="UTF-8" standalone="no"?>
<!-- Generator: Adobe Illustrator 16.0.0, SVG Export Plug-In . SVG Version: 6.00 Build 0)  -->

<svg
   xmlns:dc="http://purl.org/dc/elements/1.1/"
   xmlns:cc="http://creativecommons.org/ns#"
   xmlns:rdf="http://www.w3.org/1999/02/22-rdf-syntax-ns#"
   xmlns:svg="http://www.w3.org/2000/svg"
   xmlns="http://www.w3.org/2000/svg"
   xmlns:sodipodi="http://sodipodi.sourceforge.net/DTD/sodipodi-0.dtd"
   xmlns:inkscape="http://www.inkscape.org/namespaces/inkscape"
   id="svg3427"
   xml:space="preserve"
   height="500"
   viewBox="0 0 499.99741 499.99741"
   width="500"
   version="1.1"
   y="0px"
   x="0px"
   enable-background="new 0 0 579.997 579.997"
   inkscape:version="0.48.4 r9939"
   sodipodi:docname="65.svg"><sodipodi:namedview
   pagecolor="#ffffff"
   bordercolor="#666666"
   borderopacity="1"
   objecttolerance="10"
   gridtolerance="10"
   guidetolerance="10"
   inkscape:pageopacity="0"
   inkscape:pageshadow="2"
   inkscape:window-width="1680"
   inkscape:window-height="1024"
   id="namedview7"
   showgrid="false"
   inkscape:zoom="1.1508772"
   inkscape:cx="275.64775"
   inkscape:cy="261.45593"
   inkscape:window-x="-4"
   inkscape:window-y="-4"
   inkscape:window-maximized="1"
   inkscape:current-layer="svg3427"><inkscape:grid
     type="xygrid"
     id="grid2984"
     units="mm"
     empspacing="5"
     visible="true"
     enabled="true"
     snapvisiblegridlinesonly="true" /></sodipodi:namedview><metadata
   id="metadata12"><rdf:RDF><cc:Work
       rdf:about=""><dc:format>image/svg+xml</dc:format><dc:type
         rdf:resource="http://purl.org/dc/dcmitype/StillImage" /><dc:title></dc:title></cc:Work></rdf:RDF></metadata>
<defs
   id="defs3">
</defs>
<g
   id="layer2"
   transform="matrix(0.94022297,0,0,1.0577737,-16.393728,-56.322198)"><path
     id="path3818"
     style="fill:param(fill) #FFF;fill-opacity:1"
     d="m 180.14,199.78 0,21.26 77.953,0 46.063,56.693 -286.72,1.0866 39.226,94.54 c 9.6753,7.0132 19.354,9.0341 29.03,0 14.513,-11.54 29.031,-9.5078 43.544,0 10.571,8.4886 19.994,6.0623 29.03,0 19.004,-12.825 32.333,-8.1638 43.519,0 12.639,8.4249 20.932,4.4841 29.03,0 20.057,-13.261 32.817,-9.2244 43.544,0 10.532,7.3094 20.038,5.8292 29.03,0 17.121,-12.375 31.041,-8.4288 43.544,0 12.319,7.5147 21.324,5.5995 29.03,0 14.513,-8.858 29.006,-10.247 43.519,0 11.628,7.4031 20.435,4.0985 29.03,0 l 100.71,-87.454 v -7.0866 l -121.04,-1.0866 -63.78,-77.953 z m 106.3,21.26 67.323,0 46.063,56.693 -67.323,0 z"
     inkscape:connector-curvature="0" /></g></svg>
